<?xml version="1.0" encoding="UTF-8" standalone="no"?><svg xmlns="http://www.w3.org/2000/svg" xmlns:xlink="http://www.w3.org/1999/xlink" contentScriptType="application/ecmascript" contentStyleType="text/css" height="341px" preserveAspectRatio="none" style="width:342px;height:341px;" version="1.1" viewBox="0 0 342 341" width="342px" zoomAndPan="magnify"><defs/><g><rect fill="#FFFFFF" height="226.4609" style="stroke: #A80036; stroke-width: 1.0;" width="10" x="34" y="93.6094"/><rect fill="#FFFFFF" height="226.4609" style="stroke: #A80036; stroke-width: 1.0;" width="10" x="206" y="93.6094"/><line style="stroke: #A80036; stroke-width: 1.0; stroke-dasharray: 5.0,5.0;" x1="39" x2="39" y1="83.6094" y2="329.0703"/><line style="stroke: #A80036; stroke-width: 1.0; stroke-dasharray: 5.0,5.0;" x1="211" x2="211" y1="83.6094" y2="329.0703"/><text fill="#000000" font-family="sans-serif" font-size="14" lengthAdjust="spacingAndGlyphs" textLength="56" x="8" y="80.5332">Manager</text><ellipse cx="39" cy="13" fill="#FEFECE" rx="8" ry="8" style="stroke: #A80036; stroke-width: 2.0;"/><path d="M39,21 L39,48 M26,29 L52,29 M39,48 L26,63 M39,48 L52,63 " fill="none" style="stroke: #A80036; stroke-width: 2.0;"/><rect fill="#FEFECE" height="31.6094" style="stroke: #A80036; stroke-width: 1.5;" width="60" x="181" y="51"/><text fill="#000000" font-family="sans-serif" font-size="14" lengthAdjust="spacingAndGlyphs" textLength="46" x="188" y="72.5332">System</text><rect fill="#FFFFFF" height="226.4609" style="stroke: #A80036; stroke-width: 1.0;" width="10" x="34" y="93.6094"/><rect fill="#FFFFFF" height="226.4609" style="stroke: #A80036; stroke-width: 1.0;" width="10" x="206" y="93.6094"/><polygon fill="#A80036" points="55,111.9609,45,115.9609,55,119.9609,51,115.9609" style="stroke: #A80036; stroke-width: 1.0;"/><line style="stroke: #A80036; stroke-width: 1.0;" x1="49" x2="205" y1="115.9609" y2="115.9609"/><text fill="#000000" font-family="sans-serif" font-size="13" lengthAdjust="spacingAndGlyphs" textLength="130" x="61" y="111.1045">affiche liste des match</text><polygon fill="#A80036" points="194,142.3125,204,146.3125,194,150.3125,198,146.3125" style="stroke: #A80036; stroke-width: 1.0;"/><line style="stroke: #A80036; stroke-width: 1.0;" x1="44" x2="200" y1="146.3125" y2="146.3125"/><text fill="#000000" font-family="sans-serif" font-size="13" lengthAdjust="spacingAndGlyphs" textLength="124" x="51" y="141.4561">selectionne un match</text><polygon fill="#A80036" points="194,172.6641,204,176.6641,194,180.6641,198,176.6641" style="stroke: #A80036; stroke-width: 1.0;"/><line style="stroke: #A80036; stroke-width: 1.0;" x1="44" x2="200" y1="176.6641" y2="176.6641"/><text fill="#000000" font-family="sans-serif" font-size="13" lengthAdjust="spacingAndGlyphs" textLength="138" x="51" y="171.8076">clic sur le bouton delete</text><polygon fill="#A80036" points="55,203.0156,45,207.0156,55,211.0156,51,207.0156" style="stroke: #A80036; stroke-width: 1.0;"/><line style="stroke: #A80036; stroke-width: 1.0;" x1="49" x2="205" y1="207.0156" y2="207.0156"/><text fill="#000000" font-family="sans-serif" font-size="13" lengthAdjust="spacingAndGlyphs" textLength="127" x="61" y="202.1592">demande confirmation</text><polygon fill="#A80036" points="55,233.3672,45,237.3672,55,241.3672,51,237.3672" style="stroke: #A80036; stroke-width: 1.0;"/><line style="stroke: #A80036; stroke-width: 1.0;" x1="49" x2="205" y1="237.3672" y2="237.3672"/><text fill="#000000" font-family="sans-serif" font-size="13" lengthAdjust="spacingAndGlyphs" textLength="112" x="61" y="232.5107">clic ok confirmation</text><line style="stroke: #A80036; stroke-width: 1.0;" x1="216" x2="258" y1="267.7188" y2="267.7188"/><line style="stroke: #A80036; stroke-width: 1.0;" x1="258" x2="258" y1="267.7188" y2="280.7188"/><line style="stroke: #A80036; stroke-width: 1.0;" x1="217" x2="258" y1="280.7188" y2="280.7188"/><polygon fill="#A80036" points="227,276.7188,217,280.7188,227,284.7188,223,280.7188" style="stroke: #A80036; stroke-width: 1.0;"/><text fill="#000000" font-family="sans-serif" font-size="13" lengthAdjust="spacingAndGlyphs" textLength="107" x="223" y="262.8623">supprime le match</text><polygon fill="#A80036" points="55,307.0703,45,311.0703,55,315.0703,51,311.0703" style="stroke: #A80036; stroke-width: 1.0;"/><line style="stroke: #A80036; stroke-width: 1.0;" x1="49" x2="205" y1="311.0703" y2="311.0703"/><text fill="#000000" font-family="sans-serif" font-size="13" lengthAdjust="spacingAndGlyphs" textLength="119" x="61" y="306.2139">affiche la liste match</text><!--
@startuml
skinparam shadowing false
hide footbox
Actor Manager as M
participant System as S
activate M
activate S
S->M:affiche liste des match
S<-M:selectionne un match
S<-M:clic sur le bouton delete
S->M:demande confirmation
S->M:clic ok confirmation
S->S:supprime le match
S->M:affiche la liste match

@enduml

PlantUML version 1.2018.12(Sun Oct 21 12:15:15 CEST 2018)
(GPL source distribution)
Java Runtime: Java(TM) SE Runtime Environment
JVM: Java HotSpot(TM) Client VM
Java Version: 1.8.0_171-b11
Operating System: Windows 10
OS Version: 10.0
Default Encoding: Cp1252
Language: fr
Country: BE
--></g></svg>