<?xml version="1.0" encoding="UTF-8" standalone="no"?><svg xmlns="http://www.w3.org/2000/svg" xmlns:xlink="http://www.w3.org/1999/xlink" contentScriptType="application/ecmascript" contentStyleType="text/css" height="573px" preserveAspectRatio="none" style="width:460px;height:573px;" version="1.1" viewBox="0 0 460 573" width="460px" zoomAndPan="magnify"><defs><filter height="300%" id="f3gvl1xgdduyp" width="300%" x="-1" y="-1"><feGaussianBlur result="blurOut" stdDeviation="2.0"/><feColorMatrix in="blurOut" result="blurOut2" type="matrix" values="0 0 0 0 0 0 0 0 0 0 0 0 0 0 0 0 0 0 .4 0"/><feOffset dx="4.0" dy="4.0" in="blurOut2" result="blurOut3"/><feBlend in="SourceGraphic" in2="blurOut3" mode="normal"/></filter></defs><g><rect fill="#FFFFFF" filter="url(#f3gvl1xgdduyp)" height="455.2422" style="stroke: #A80036; stroke-width: 1.0;" width="10" x="49" y="97.6094"/><rect fill="#FFFFFF" filter="url(#f3gvl1xgdduyp)" height="455.2422" style="stroke: #A80036; stroke-width: 1.0;" width="10" x="313" y="97.6094"/><rect fill="#FFFFFF" filter="url(#f3gvl1xgdduyp)" height="214.7813" style="stroke: #000000; stroke-width: 2.0;" width="435" x="13" y="195.6641"/><rect fill="#FFFFFF" height="76.5391" style="stroke: none; stroke-width: 1.0;" width="435" x="13" y="257.3672"/><rect fill="#FFFFFF" height="76.5391" style="stroke: none; stroke-width: 1.0;" width="435" x="13" y="333.9063"/><line style="stroke: #A80036; stroke-width: 1.0; stroke-dasharray: 5.0,5.0;" x1="54" x2="54" y1="87.6094" y2="561.8516"/><line style="stroke: #A80036; stroke-width: 1.0; stroke-dasharray: 5.0,5.0;" x1="318" x2="318" y1="87.6094" y2="561.8516"/><text fill="#000000" font-family="sans-serif" font-size="14" lengthAdjust="spacingAndGlyphs" textLength="56" x="23" y="84.5332">Manager</text><ellipse cx="54" cy="13" fill="#FEFECE" filter="url(#f3gvl1xgdduyp)" rx="8" ry="8" style="stroke: #A80036; stroke-width: 2.0;"/><path d="M54,21 L54,48 M41,29 L67,29 M54,48 L41,63 M54,48 L67,63 " fill="none" filter="url(#f3gvl1xgdduyp)" style="stroke: #A80036; stroke-width: 2.0;"/><rect fill="#FEFECE" filter="url(#f3gvl1xgdduyp)" height="31.6094" style="stroke: #A80036; stroke-width: 1.5;" width="60" x="286" y="51"/><text fill="#000000" font-family="sans-serif" font-size="14" lengthAdjust="spacingAndGlyphs" textLength="46" x="293" y="72.5332">System</text><rect fill="#FFFFFF" filter="url(#f3gvl1xgdduyp)" height="455.2422" style="stroke: #A80036; stroke-width: 1.0;" width="10" x="49" y="97.6094"/><rect fill="#FFFFFF" filter="url(#f3gvl1xgdduyp)" height="455.2422" style="stroke: #A80036; stroke-width: 1.0;" width="10" x="313" y="97.6094"/><polygon fill="#A80036" points="70,115.9609,60,119.9609,70,123.9609,66,119.9609" style="stroke: #A80036; stroke-width: 1.0;"/><line style="stroke: #A80036; stroke-width: 1.0;" x1="64" x2="312" y1="119.9609" y2="119.9609"/><text fill="#000000" font-family="sans-serif" font-size="13" lengthAdjust="spacingAndGlyphs" textLength="138" x="76" y="115.1045">Affiche liste des joueurs</text><polygon fill="#A80036" points="301,146.3125,311,150.3125,301,154.3125,305,150.3125" style="stroke: #A80036; stroke-width: 1.0;"/><line style="stroke: #A80036; stroke-width: 1.0;" x1="59" x2="307" y1="150.3125" y2="150.3125"/><text fill="#000000" font-family="sans-serif" font-size="13" lengthAdjust="spacingAndGlyphs" textLength="115" x="66" y="145.4561">selectionne Joueur1</text><polygon fill="#A80036" points="301,176.6641,311,180.6641,301,184.6641,305,180.6641" style="stroke: #A80036; stroke-width: 1.0;"/><line style="stroke: #A80036; stroke-width: 1.0;" x1="59" x2="307" y1="180.6641" y2="180.6641"/><text fill="#000000" font-family="sans-serif" font-size="13" lengthAdjust="spacingAndGlyphs" textLength="112" x="66" y="175.8076">selectionne joueur2</text><path d="M13,195.6641 L74,195.6641 L74,203.6641 L64,213.6641 L13,213.6641 L13,195.6641 " fill="#EEEEEE" style="stroke: #000000; stroke-width: 1.0;"/><rect fill="none" height="214.7813" style="stroke: #000000; stroke-width: 2.0;" width="435" x="13" y="195.6641"/><text fill="#000000" font-family="sans-serif" font-size="13" font-weight="bold" lengthAdjust="spacingAndGlyphs" textLength="16" x="28" y="210.1592">alt</text><text fill="#000000" font-family="sans-serif" font-size="11" font-weight="bold" lengthAdjust="spacingAndGlyphs" textLength="130" x="89" y="209.083">[case joueur1!=joueur2]</text><line style="stroke: #A80036; stroke-width: 1.0;" x1="323" x2="365" y1="236.3672" y2="236.3672"/><line style="stroke: #A80036; stroke-width: 1.0;" x1="365" x2="365" y1="236.3672" y2="249.3672"/><line style="stroke: #A80036; stroke-width: 1.0;" x1="324" x2="365" y1="249.3672" y2="249.3672"/><polygon fill="#A80036" points="334,245.3672,324,249.3672,334,253.3672,330,249.3672" style="stroke: #A80036; stroke-width: 1.0;"/><text fill="#000000" font-family="sans-serif" font-size="13" lengthAdjust="spacingAndGlyphs" textLength="106" x="330" y="231.5107">valide les données</text><line style="stroke: #000000; stroke-width: 1.0; stroke-dasharray: 2.0,2.0;" x1="13" x2="448" y1="258.3672" y2="258.3672"/><text fill="#000000" font-family="sans-serif" font-size="11" font-weight="bold" lengthAdjust="spacingAndGlyphs" textLength="133" x="18" y="269.7861">[case joueur1==joueur2]</text><polygon fill="#A80036" points="70,291.5547,60,295.5547,70,299.5547,66,295.5547" style="stroke: #A80036; stroke-width: 1.0;"/><line style="stroke: #A80036; stroke-width: 1.0; stroke-dasharray: 2.0,2.0;" x1="64" x2="312" y1="295.5547" y2="295.5547"/><text fill="#000000" font-family="sans-serif" font-size="13" lengthAdjust="spacingAndGlyphs" textLength="197" x="76" y="290.6982">affiche selectionne un autre joueur</text><polygon fill="#A80036" points="301,321.9063,311,325.9063,301,329.9063,305,325.9063" style="stroke: #A80036; stroke-width: 1.0;"/><line style="stroke: #A80036; stroke-width: 1.0;" x1="59" x2="307" y1="325.9063" y2="325.9063"/><text fill="#000000" font-family="sans-serif" font-size="13" lengthAdjust="spacingAndGlyphs" textLength="112" x="66" y="321.0498">selectionne joueur2</text><line style="stroke: #000000; stroke-width: 1.0; stroke-dasharray: 2.0,2.0;" x1="13" x2="448" y1="334.9063" y2="334.9063"/><text fill="#000000" font-family="sans-serif" font-size="11" font-weight="bold" lengthAdjust="spacingAndGlyphs" textLength="155" x="18" y="346.3252">[case Match (exists match )]</text><polygon fill="#A80036" points="70,368.0938,60,372.0938,70,376.0938,66,372.0938" style="stroke: #A80036; stroke-width: 1.0;"/><line style="stroke: #A80036; stroke-width: 1.0;" x1="64" x2="312" y1="372.0938" y2="372.0938"/><text fill="#000000" font-family="sans-serif" font-size="13" lengthAdjust="spacingAndGlyphs" textLength="230" x="76" y="367.2373">affiche selectionne un autre joueur autre</text><polygon fill="#A80036" points="301,398.4453,311,402.4453,301,406.4453,305,402.4453" style="stroke: #A80036; stroke-width: 1.0;"/><line style="stroke: #A80036; stroke-width: 1.0;" x1="59" x2="307" y1="402.4453" y2="402.4453"/><text fill="#000000" font-family="sans-serif" font-size="13" lengthAdjust="spacingAndGlyphs" textLength="119" x="66" y="397.5889">selectionnne joueur2</text><polygon fill="#A80036" points="301,435.7969,311,439.7969,301,443.7969,305,439.7969" style="stroke: #A80036; stroke-width: 1.0;"/><line style="stroke: #A80036; stroke-width: 1.0; stroke-dasharray: 2.0,2.0;" x1="59" x2="307" y1="439.7969" y2="439.7969"/><text fill="#000000" font-family="sans-serif" font-size="13" lengthAdjust="spacingAndGlyphs" textLength="120" x="66" y="434.9404">selectionne un score</text><polygon fill="#A80036" points="301,466.1484,311,470.1484,301,474.1484,305,470.1484" style="stroke: #A80036; stroke-width: 1.0;"/><line style="stroke: #A80036; stroke-width: 1.0; stroke-dasharray: 2.0,2.0;" x1="59" x2="307" y1="470.1484" y2="470.1484"/><text fill="#000000" font-family="sans-serif" font-size="13" lengthAdjust="spacingAndGlyphs" textLength="126" x="66" y="465.292">clic sur le bouton Add</text><line style="stroke: #A80036; stroke-width: 1.0;" x1="323" x2="365" y1="500.5" y2="500.5"/><line style="stroke: #A80036; stroke-width: 1.0;" x1="365" x2="365" y1="500.5" y2="513.5"/><line style="stroke: #A80036; stroke-width: 1.0;" x1="324" x2="365" y1="513.5" y2="513.5"/><polygon fill="#A80036" points="334,509.5,324,513.5,334,517.5,330,513.5" style="stroke: #A80036; stroke-width: 1.0;"/><text fill="#000000" font-family="sans-serif" font-size="13" lengthAdjust="spacingAndGlyphs" textLength="106" x="330" y="495.6436">valide les données</text><polygon fill="#A80036" points="70,539.8516,60,543.8516,70,547.8516,66,543.8516" style="stroke: #A80036; stroke-width: 1.0;"/><line style="stroke: #A80036; stroke-width: 1.0;" x1="64" x2="312" y1="543.8516" y2="543.8516"/><text fill="#000000" font-family="sans-serif" font-size="13" lengthAdjust="spacingAndGlyphs" textLength="158" x="76" y="538.9951">affiche la Table des matchs</text><!--
@startuml
Actor Manager as M
participant System as S
hide footbox
activate M
activate S
S->M:Affiche liste des joueurs
M->S :selectionne Joueur1
M->S: selectionne joueur2
alt case joueur1!=joueur2

S->S:valide les données
else case joueur1==joueur2
S- ->M:affiche selectionne un autre joueur

M->S: selectionne joueur2
else case Match (exists match )
S->M: affiche selectionne un autre joueur autre
S<-M:selectionnne joueur2
end
M- ->S:selectionne un score
M- ->S:clic sur le bouton Add
S->S:valide les données
S->M:affiche la Table des matchs


@enduml

PlantUML version 1.2018.12(Sun Oct 21 12:15:15 CEST 2018)
(GPL source distribution)
Java Runtime: Java(TM) SE Runtime Environment
JVM: Java HotSpot(TM) Client VM
Java Version: 1.8.0_171-b11
Operating System: Windows 10
OS Version: 10.0
Default Encoding: Cp1252
Language: fr
Country: BE
--></g></svg>