<?xml version="1.0" encoding="UTF-8" standalone="no"?><svg xmlns="http://www.w3.org/2000/svg" xmlns:xlink="http://www.w3.org/1999/xlink" contentScriptType="application/ecmascript" contentStyleType="text/css" height="371px" preserveAspectRatio="none" style="width:355px;height:371px;" version="1.1" viewBox="0 0 355 371" width="355px" zoomAndPan="magnify"><defs/><g><rect fill="#FFFFFF" height="256.8125" style="stroke: #A80036; stroke-width: 1.0;" width="10" x="34" y="93.6094"/><rect fill="#FFFFFF" height="256.8125" style="stroke: #A80036; stroke-width: 1.0;" width="10" x="220" y="93.6094"/><line style="stroke: #A80036; stroke-width: 1.0; stroke-dasharray: 5.0,5.0;" x1="39" x2="39" y1="83.6094" y2="359.4219"/><line style="stroke: #A80036; stroke-width: 1.0; stroke-dasharray: 5.0,5.0;" x1="225" x2="225" y1="83.6094" y2="359.4219"/><text fill="#000000" font-family="sans-serif" font-size="14" lengthAdjust="spacingAndGlyphs" textLength="56" x="8" y="80.5332">Manager</text><ellipse cx="39" cy="13" fill="#FEFECE" rx="8" ry="8" style="stroke: #A80036; stroke-width: 2.0;"/><path d="M39,21 L39,48 M26,29 L52,29 M39,48 L26,63 M39,48 L52,63 " fill="none" style="stroke: #A80036; stroke-width: 2.0;"/><rect fill="#FEFECE" height="31.6094" style="stroke: #A80036; stroke-width: 1.5;" width="60" x="195" y="51"/><text fill="#000000" font-family="sans-serif" font-size="14" lengthAdjust="spacingAndGlyphs" textLength="46" x="202" y="72.5332">System</text><rect fill="#FFFFFF" height="256.8125" style="stroke: #A80036; stroke-width: 1.0;" width="10" x="34" y="93.6094"/><rect fill="#FFFFFF" height="256.8125" style="stroke: #A80036; stroke-width: 1.0;" width="10" x="220" y="93.6094"/><polygon fill="#A80036" points="55,111.9609,45,115.9609,55,119.9609,51,115.9609" style="stroke: #A80036; stroke-width: 1.0;"/><line style="stroke: #A80036; stroke-width: 1.0;" x1="49" x2="219" y1="115.9609" y2="115.9609"/><text fill="#000000" font-family="sans-serif" font-size="13" lengthAdjust="spacingAndGlyphs" textLength="152" x="61" y="111.1045">affiche la table  des match</text><polygon fill="#A80036" points="208,142.3125,218,146.3125,208,150.3125,212,146.3125" style="stroke: #A80036; stroke-width: 1.0;"/><line style="stroke: #A80036; stroke-width: 1.0;" x1="44" x2="214" y1="146.3125" y2="146.3125"/><text fill="#000000" font-family="sans-serif" font-size="13" lengthAdjust="spacingAndGlyphs" textLength="110" x="51" y="141.4561">selection un match</text><polygon fill="#A80036" points="208,172.6641,218,176.6641,208,180.6641,212,176.6641" style="stroke: #A80036; stroke-width: 1.0;"/><line style="stroke: #A80036; stroke-width: 1.0;" x1="44" x2="214" y1="176.6641" y2="176.6641"/><text fill="#000000" font-family="sans-serif" font-size="13" lengthAdjust="spacingAndGlyphs" textLength="81" x="51" y="171.8076">select joueur1</text><polygon fill="#A80036" points="208,203.0156,218,207.0156,208,211.0156,212,207.0156" style="stroke: #A80036; stroke-width: 1.0;"/><line style="stroke: #A80036; stroke-width: 1.0;" x1="44" x2="214" y1="207.0156" y2="207.0156"/><text fill="#000000" font-family="sans-serif" font-size="13" lengthAdjust="spacingAndGlyphs" textLength="84" x="51" y="202.1592">select Joueur2</text><polygon fill="#A80036" points="208,233.3672,218,237.3672,208,241.3672,212,237.3672" style="stroke: #A80036; stroke-width: 1.0;"/><line style="stroke: #A80036; stroke-width: 1.0;" x1="44" x2="214" y1="237.3672" y2="237.3672"/><text fill="#000000" font-family="sans-serif" font-size="13" lengthAdjust="spacingAndGlyphs" textLength="71" x="51" y="232.5107">select score</text><polygon fill="#A80036" points="208,263.7188,218,267.7188,208,271.7188,212,267.7188" style="stroke: #A80036; stroke-width: 1.0;"/><line style="stroke: #A80036; stroke-width: 1.0;" x1="44" x2="214" y1="267.7188" y2="267.7188"/><text fill="#000000" font-family="sans-serif" font-size="13" lengthAdjust="spacingAndGlyphs" textLength="142" x="51" y="262.8623">clic sur le bouton update</text><line style="stroke: #A80036; stroke-width: 1.0;" x1="230" x2="272" y1="298.0703" y2="298.0703"/><line style="stroke: #A80036; stroke-width: 1.0;" x1="272" x2="272" y1="298.0703" y2="311.0703"/><line style="stroke: #A80036; stroke-width: 1.0;" x1="231" x2="272" y1="311.0703" y2="311.0703"/><polygon fill="#A80036" points="241,307.0703,231,311.0703,241,315.0703,237,311.0703" style="stroke: #A80036; stroke-width: 1.0;"/><text fill="#000000" font-family="sans-serif" font-size="13" lengthAdjust="spacingAndGlyphs" textLength="106" x="237" y="293.2139">valide les données</text><polygon fill="#A80036" points="55,337.4219,45,341.4219,55,345.4219,51,341.4219" style="stroke: #A80036; stroke-width: 1.0;"/><line style="stroke: #A80036; stroke-width: 1.0;" x1="49" x2="219" y1="341.4219" y2="341.4219"/><text fill="#000000" font-family="sans-serif" font-size="13" lengthAdjust="spacingAndGlyphs" textLength="148" x="61" y="336.5654">affiche la table des match</text><!--
@startuml 
skinparam Shadowing false
hide footbox
Actor Manager as M
participant System  as S
activate S
activate M
S->M:affiche la table  des match
S<-M:selection un match
M->S:select joueur1
M->S:select Joueur2
M->S:select score
M->S:clic sur le bouton update
S<-S:valide les données
M<-S:affiche la table des match
@enduml

PlantUML version 1.2018.12(Sun Oct 21 12:15:15 CEST 2018)
(GPL source distribution)
Java Runtime: Java(TM) SE Runtime Environment
JVM: Java HotSpot(TM) Client VM
Java Version: 1.8.0_171-b11
Operating System: Windows 10
OS Version: 10.0
Default Encoding: Cp1252
Language: fr
Country: BE
--></g></svg>