<?xml version="1.0" encoding="UTF-8" standalone="no"?><svg xmlns="http://www.w3.org/2000/svg" xmlns:xlink="http://www.w3.org/1999/xlink" contentScriptType="application/ecmascript" contentStyleType="text/css" height="444px" preserveAspectRatio="none" style="width:656px;height:444px;" version="1.1" viewBox="0 0 656 444" width="656px" zoomAndPan="magnify"><defs/><g><rect fill="#FEFECE" height="49.2188" style="stroke: #A80036; stroke-width: 1.5;" width="97" x="234.5" y="93.6094"/><text fill="#000000" font-family="sans-serif" font-size="14" font-style="italic" lengthAdjust="spacingAndGlyphs" textLength="83" x="241.5" y="114.6094">«Match add»</text><text fill="#000000" font-family="sans-serif" font-size="14" lengthAdjust="spacingAndGlyphs" textLength="29" x="268.5" y="132.2188">View</text><rect fill="#FEFECE" height="31.6094" style="stroke: #A80036; stroke-width: 1.5;" width="52" x="374" y="275.2344"/><text fill="#000000" font-family="sans-serif" font-size="14" lengthAdjust="spacingAndGlyphs" textLength="38" x="381" y="296.7676">Match</text><line style="stroke: #A80036; stroke-width: 1.0; stroke-dasharray: 5.0,5.0;" x1="39" x2="39" y1="83.6094" y2="432.8984"/><line style="stroke: #A80036; stroke-width: 1.0; stroke-dasharray: 5.0,5.0;" x1="282.5" x2="282.5" y1="133.7188" y2="432.8984"/><line style="stroke: #A80036; stroke-width: 1.0; stroke-dasharray: 5.0,5.0;" x1="400" x2="400" y1="306.5391" y2="432.8984"/><line style="stroke: #A80036; stroke-width: 1.0; stroke-dasharray: 5.0,5.0;" x1="474" x2="474" y1="83.6094" y2="432.8984"/><line style="stroke: #A80036; stroke-width: 1.0; stroke-dasharray: 5.0,5.0;" x1="604" x2="604" y1="83.6094" y2="432.8984"/><text fill="#000000" font-family="sans-serif" font-size="14" lengthAdjust="spacingAndGlyphs" textLength="56" x="8" y="80.5332">Manager</text><ellipse cx="39" cy="13" fill="#FEFECE" rx="8" ry="8" style="stroke: #A80036; stroke-width: 2.0;"/><path d="M39,21 L39,48 M26,29 L52,29 M39,48 L26,63 M39,48 L52,63 " fill="none" style="stroke: #A80036; stroke-width: 2.0;"/><rect fill="#FEFECE" height="31.6094" style="stroke: #A80036; stroke-width: 1.5;" width="76" x="436" y="51"/><text fill="#000000" font-family="sans-serif" font-size="14" lengthAdjust="spacingAndGlyphs" textLength="62" x="443" y="72.5332">Controller</text><rect fill="#FEFECE" height="31.6094" style="stroke: #A80036; stroke-width: 1.5;" width="82" x="563" y="51"/><text fill="#000000" font-family="sans-serif" font-size="14" lengthAdjust="spacingAndGlyphs" textLength="68" x="570" y="72.5332">Repository</text><polygon fill="#A80036" points="342.5,111.9609,332.5,115.9609,342.5,119.9609,338.5,115.9609" style="stroke: #A80036; stroke-width: 1.0;"/><line style="stroke: #A80036; stroke-width: 1.0;" x1="336.5" x2="473" y1="115.9609" y2="115.9609"/><text fill="#000000" font-family="sans-serif" font-size="13" lengthAdjust="spacingAndGlyphs" textLength="23" x="348.5" y="111.1045">new</text><rect fill="#FEFECE" height="49.2188" style="stroke: #A80036; stroke-width: 1.5;" width="97" x="234.5" y="93.6094"/><text fill="#000000" font-family="sans-serif" font-size="14" font-style="italic" lengthAdjust="spacingAndGlyphs" textLength="83" x="241.5" y="114.6094">«Match add»</text><text fill="#000000" font-family="sans-serif" font-size="14" lengthAdjust="spacingAndGlyphs" textLength="29" x="268.5" y="132.2188">View</text><polygon fill="#A80036" points="271,172.1797,281,176.1797,271,180.1797,275,176.1797" style="stroke: #A80036; stroke-width: 1.0;"/><line style="stroke: #A80036; stroke-width: 1.0;" x1="39" x2="277" y1="176.1797" y2="176.1797"/><text fill="#000000" font-family="sans-serif" font-size="13" lengthAdjust="spacingAndGlyphs" textLength="220" x="46" y="171.3232">selectPlayerFirstName(player1):String</text><polygon fill="#A80036" points="271,202.5313,281,206.5313,271,210.5313,275,206.5313" style="stroke: #A80036; stroke-width: 1.0;"/><line style="stroke: #A80036; stroke-width: 1.0;" x1="39" x2="277" y1="206.5313" y2="206.5313"/><text fill="#000000" font-family="sans-serif" font-size="13" lengthAdjust="spacingAndGlyphs" textLength="217" x="46" y="201.6748">selectPkayerFirstName(player):String</text><polygon fill="#A80036" points="271,232.8828,281,236.8828,271,240.8828,275,236.8828" style="stroke: #A80036; stroke-width: 1.0;"/><line style="stroke: #A80036; stroke-width: 1.0;" x1="39" x2="277" y1="236.8828" y2="236.8828"/><text fill="#000000" font-family="sans-serif" font-size="13" lengthAdjust="spacingAndGlyphs" textLength="113" x="46" y="232.0264">selectScore():string</text><polygon fill="#A80036" points="271,263.2344,281,267.2344,271,271.2344,275,267.2344" style="stroke: #A80036; stroke-width: 1.0;"/><line style="stroke: #A80036; stroke-width: 1.0;" x1="39" x2="277" y1="267.2344" y2="267.2344"/><text fill="#000000" font-family="sans-serif" font-size="13" lengthAdjust="spacingAndGlyphs" textLength="116" x="46" y="262.3779">validate():ButtonAdd</text><polygon fill="#A80036" points="362,293.5859,372,297.5859,362,301.5859,366,297.5859" style="stroke: #A80036; stroke-width: 1.0;"/><line style="stroke: #A80036; stroke-width: 1.0;" x1="283" x2="368" y1="297.5859" y2="297.5859"/><text fill="#000000" font-family="sans-serif" font-size="13" lengthAdjust="spacingAndGlyphs" textLength="23" x="290" y="292.7295">new</text><rect fill="#FEFECE" height="31.6094" style="stroke: #A80036; stroke-width: 1.5;" width="52" x="374" y="275.2344"/><text fill="#000000" font-family="sans-serif" font-size="14" lengthAdjust="spacingAndGlyphs" textLength="38" x="381" y="296.7676">Match</text><polygon fill="#A80036" points="388,336.1953,398,340.1953,388,344.1953,392,340.1953" style="stroke: #A80036; stroke-width: 1.0;"/><line style="stroke: #A80036; stroke-width: 1.0;" x1="283" x2="394" y1="340.1953" y2="340.1953"/><text fill="#000000" font-family="sans-serif" font-size="13" lengthAdjust="spacingAndGlyphs" textLength="93" x="290" y="335.3389">validate(): error[]</text><polygon fill="#A80036" points="294,350.1953,284,354.1953,294,358.1953,290,354.1953" style="stroke: #A80036; stroke-width: 1.0;"/><line style="stroke: #A80036; stroke-width: 1.0; stroke-dasharray: 2.0,2.0;" x1="288" x2="399" y1="354.1953" y2="354.1953"/><polygon fill="#A80036" points="462,380.5469,472,384.5469,462,388.5469,466,384.5469" style="stroke: #A80036; stroke-width: 1.0;"/><line style="stroke: #A80036; stroke-width: 1.0;" x1="283" x2="468" y1="384.5469" y2="384.5469"/><text fill="#000000" font-family="sans-serif" font-size="13" lengthAdjust="spacingAndGlyphs" textLength="116" x="290" y="379.6904">createMatch(Match)</text><polygon fill="#A80036" points="592,410.8984,602,414.8984,592,418.8984,596,414.8984" style="stroke: #A80036; stroke-width: 1.0;"/><line style="stroke: #A80036; stroke-width: 1.0;" x1="474" x2="598" y1="414.8984" y2="414.8984"/><text fill="#000000" font-family="sans-serif" font-size="13" lengthAdjust="spacingAndGlyphs" textLength="106" x="481" y="410.042">saveMatch(Match)</text><line style="stroke: #A80036; stroke-width: 2.0;" x1="274" x2="292" y1="405.8984" y2="423.8984"/><line style="stroke: #A80036; stroke-width: 2.0;" x1="274" x2="292" y1="423.8984" y2="405.8984"/><line style="stroke: #A80036; stroke-width: 2.0;" x1="391" x2="409" y1="405.8984" y2="423.8984"/><line style="stroke: #A80036; stroke-width: 2.0;" x1="391" x2="409" y1="423.8984" y2="405.8984"/><!--
@startuml 
skinparam shadowing false
hide footbox  
Actor Manager as M 
participant View as V <<Match add>>
participant Match
participant Controller as C
 
participant Repository as R
 create V 
 C->V:new 
 M->V: selectPlayerFirstName(player1):String
 M->V:selectPkayerFirstName(player):String 
 M->V:selectScore():string
 M->V:validate():ButtonAdd
create Match 
 V->Match:new
 V->Match:validate(): error[]
 Match- ->V
V->C:createMatch(Match)
C->R:saveMatch(Match)
destroy V 
destroy Match

@enduml

PlantUML version 1.2018.12(Sun Oct 21 12:15:15 CEST 2018)
(GPL source distribution)
Java Runtime: Java(TM) SE Runtime Environment
JVM: Java HotSpot(TM) Client VM
Java Version: 1.8.0_171-b11
Operating System: Windows 10
OS Version: 10.0
Default Encoding: Cp1252
Language: fr
Country: BE
--></g></svg>