<?xml version="1.0" encoding="UTF-8" standalone="no"?><svg xmlns="http://www.w3.org/2000/svg" xmlns:xlink="http://www.w3.org/1999/xlink" contentScriptType="application/ecmascript" contentStyleType="text/css" height="537px" preserveAspectRatio="none" style="width:836px;height:537px;" version="1.1" viewBox="0 0 836 537" width="836px" zoomAndPan="magnify"><defs/><g><!--cluster Tournoi--><polygon fill="#FFFFFF" points="109,24,169,24,176,47.6094,814,47.6094,814,266,109,266,109,24" style="stroke: #000000; stroke-width: 1.5;"/><line style="stroke: #000000; stroke-width: 1.5;" x1="109" x2="176" y1="47.6094" y2="47.6094"/><text fill="#000000" font-family="sans-serif" font-size="14" font-weight="bold" lengthAdjust="spacingAndGlyphs" textLength="54" x="113" y="40.5332">Tournoi</text><!--cluster Match--><polygon fill="#FFFFFF" points="115,290,164,290,171,313.6094,317,313.6094,317,525,115,525,115,290" style="stroke: #000000; stroke-width: 1.5;"/><line style="stroke: #000000; stroke-width: 1.5;" x1="115" x2="171" y1="313.6094" y2="313.6094"/><text fill="#000000" font-family="sans-serif" font-size="14" font-weight="bold" lengthAdjust="spacingAndGlyphs" textLength="43" x="119" y="306.5332">Match</text><ellipse cx="503.8574" cy="152.8715" fill="#FEFECE" rx="79.8574" ry="18.3715" style="stroke: #A80036; stroke-width: 1.5;"/><text fill="#000000" font-family="sans-serif" font-size="14" lengthAdjust="spacingAndGlyphs" textLength="126" x="440.8574" y="158.1762">UC_TOURNOI_LIST</text><ellipse cx="721.6143" cy="153.2229" fill="#FEFECE" rx="76.6143" ry="17.7229" style="stroke: #A80036; stroke-width: 1.5;"/><text fill="#000000" font-family="sans-serif" font-size="14" lengthAdjust="spacingAndGlyphs" textLength="118" x="662.6143" y="158.5275">UC_LIST_JOUEUR</text><ellipse cx="215.8574" cy="78.8715" fill="#FEFECE" rx="79.8574" ry="18.3715" style="stroke: #A80036; stroke-width: 1.5;"/><text fill="#000000" font-family="sans-serif" font-size="14" lengthAdjust="spacingAndGlyphs" textLength="126" x="152.8574" y="84.1762">UC_ADD_TOURNOI</text><ellipse cx="215.8974" cy="152.9795" fill="#FEFECE" rx="90.3974" ry="20.4795" style="stroke: #A80036; stroke-width: 1.5;"/><text fill="#000000" font-family="sans-serif" font-size="14" lengthAdjust="spacingAndGlyphs" textLength="151" x="140.3974" y="158.2842">UC_TOURNOI_DELETE</text><ellipse cx="215.8297" cy="229.0659" fill="#FEFECE" rx="90.8297" ry="20.5659" style="stroke: #A80036; stroke-width: 1.5;"/><text fill="#000000" font-family="sans-serif" font-size="14" lengthAdjust="spacingAndGlyphs" textLength="152" x="139.8297" y="234.3706">UC_TOURNOI_UPDATE</text><ellipse cx="216.2325" cy="343.2465" fill="#FEFECE" rx="74.2325" ry="17.2465" style="stroke: #A80036; stroke-width: 1.5;"/><text fill="#000000" font-family="sans-serif" font-size="14" lengthAdjust="spacingAndGlyphs" textLength="112" x="160.2325" y="348.5512">UC_MATCH_ADD</text><ellipse cx="215.9267" cy="414.7853" fill="#FEFECE" rx="84.4267" ry="19.2853" style="stroke: #A80036; stroke-width: 1.5;"/><text fill="#000000" font-family="sans-serif" font-size="14" lengthAdjust="spacingAndGlyphs" textLength="137" x="147.4267" y="420.09">UC_MATCH_DELETE</text><ellipse cx="215.8478" cy="488.8696" fill="#FEFECE" rx="84.8478" ry="19.3696" style="stroke: #A80036; stroke-width: 1.5;"/><text fill="#000000" font-family="sans-serif" font-size="14" lengthAdjust="spacingAndGlyphs" textLength="138" x="146.8478" y="494.1742">UC_MATCH_UPDATE</text><!--entity M--><ellipse cx="34" cy="257.5" fill="#FEFECE" rx="8" ry="8" style="stroke: #A80036; stroke-width: 2.0;"/><path d="M34,265.5 L34,292.5 M21,273.5 L47,273.5 M34,292.5 L21,307.5 M34,292.5 L47,307.5 " fill="none" style="stroke: #A80036; stroke-width: 2.0;"/><text fill="#000000" font-family="sans-serif" font-size="14" lengthAdjust="spacingAndGlyphs" textLength="56" x="6" y="325.0332">Manager</text><!--link M to UC_ADD_TOURNOI--><path d="M40.2302,247.414 C47.3608,208.311 63.8151,150.068 101,115 C112.905,103.773 128.29,96.046 143.883,90.729 " fill="none" id="M-UC_ADD_TOURNOI" style="stroke: #A80036; stroke-width: 1.0;"/><polygon fill="#A80036" points="148.725,89.155,138.9292,88.1337,143.97,90.7009,141.4028,95.7417,148.725,89.155" style="stroke: #A80036; stroke-width: 1.0;"/><!--link UC_ADD_TOURNOI to UC_TOURNOI_LIST--><path d="M270.124,92.745 C319.732,105.581 393.609,124.696 444.795,137.94 " fill="none" id="UC_ADD_TOURNOI-UC_TOURNOI_LIST" style="stroke: #A80036; stroke-width: 1.0;"/><polygon fill="#A80036" points="449.676,139.203,441.9651,133.0758,444.8355,137.9504,439.9609,140.8207,449.676,139.203" style="stroke: #A80036; stroke-width: 1.0;"/><text fill="#000000" font-family="sans-serif" font-size="13" lengthAdjust="spacingAndGlyphs" textLength="55" x="338" y="107.4951">«include»</text><!--link M to UC_TOURNOI_DELETE--><path d="M54.584,247.443 C65.785,227.979 81.5054,205.744 101,191 C113.817,181.306 129.243,174.005 144.547,168.535 " fill="none" id="M-UC_TOURNOI_DELETE" style="stroke: #A80036; stroke-width: 1.0;"/><polygon fill="#A80036" points="149.289,166.896,139.4762,166.0545,144.5632,168.5289,142.0888,173.6159,149.289,166.896" style="stroke: #A80036; stroke-width: 1.0;"/><!--link UC_TOURNOI_DELETE to UC_TOURNOI_LIST--><path d="M306.707,153 C342.463,153 383.406,153 418.616,153 " fill="none" id="UC_TOURNOI_DELETE-UC_TOURNOI_LIST" style="stroke: #A80036; stroke-width: 1.0;"/><polygon fill="#A80036" points="423.768,153,414.768,149,418.768,153,414.768,157,423.768,153" style="stroke: #A80036; stroke-width: 1.0;"/><text fill="#000000" font-family="sans-serif" font-size="13" lengthAdjust="spacingAndGlyphs" textLength="55" x="338" y="149.4951">«include»</text><!--link M to UC_TOURNOI_UPDATE--><path d="M62.3381,279.039 C87.7305,270.716 126.334,258.063 158.368,247.563 " fill="none" id="M-UC_TOURNOI_UPDATE" style="stroke: #A80036; stroke-width: 1.0;"/><polygon fill="#A80036" points="163.449,245.897,153.6509,244.8987,158.6976,247.4541,156.1423,252.5009,163.449,245.897" style="stroke: #A80036; stroke-width: 1.0;"/><!--link UC_TOURNOI_UPDATE to UC_TOURNOI_LIST--><path d="M275.567,213.437 C325.336,200.211 396.364,181.337 445.753,168.213 " fill="none" id="UC_TOURNOI_UPDATE-UC_TOURNOI_LIST" style="stroke: #A80036; stroke-width: 1.0;"/><polygon fill="#A80036" points="450.763,166.881,441.0376,165.3266,445.9307,168.1651,443.0922,173.0583,450.763,166.881" style="stroke: #A80036; stroke-width: 1.0;"/><text fill="#000000" font-family="sans-serif" font-size="13" lengthAdjust="spacingAndGlyphs" textLength="55" x="338" y="180.4951">«include»</text><!--link UC_TOURNOI_LIST to UC_LIST_JOUEUR--><path d="M584.021,153 C602.138,153 621.424,153 639.618,153 " fill="none" id="UC_TOURNOI_LIST-UC_LIST_JOUEUR" style="stroke: #A80036; stroke-width: 1.0;"/><polygon fill="#A80036" points="644.719,153,635.719,149,639.719,153,635.719,157,644.719,153" style="stroke: #A80036; stroke-width: 1.0;"/><!--link M to UC_MATCH_ADD--><path d="M62.3381,296.353 C89.7097,304.717 132.432,317.771 165.729,327.945 " fill="none" id="M-UC_MATCH_ADD" style="stroke: #A80036; stroke-width: 1.0;"/><polygon fill="#A80036" points="170.571,329.424,163.1332,322.968,165.7894,327.9625,160.7949,330.6186,170.571,329.424" style="stroke: #A80036; stroke-width: 1.0;"/><!--link M to UC_MATCH_DELETE--><path d="M57.1644,328.866 C68.3172,346.134 83.256,365.173 101,378 C114.601,387.832 130.948,395.142 146.96,400.542 " fill="none" id="M-UC_MATCH_DELETE" style="stroke: #A80036; stroke-width: 1.0;"/><polygon fill="#A80036" points="151.916,402.158,144.5991,395.5653,147.1623,400.6082,142.1194,403.1713,151.916,402.158" style="stroke: #A80036; stroke-width: 1.0;"/><!--link M to UC_MATCH_UPDATE--><path d="M41.3232,328.567 C49.1486,365.576 66.0008,419.329 101,452 C112.479,462.7158 127.098,470.3291 142.007,475.7379 " fill="none" id="M-UC_MATCH_UPDATE" style="stroke: #A80036; stroke-width: 1.0;"/><polygon fill="#A80036" points="147.07,477.4889,139.8717,470.7669,142.3446,475.8546,137.2569,478.3275,147.07,477.4889" style="stroke: #A80036; stroke-width: 1.0;"/><!--
@startuml
skinparam shadowing False
left to right direction
: Manager:as M
package Tournoi{
   usecase  UC_TOURNOI_LIST
   usecase UC_LIST_JOUEUR
   usecase UC_ADD_TOURNOI
   usecase UC_TOURNOI_DELETE
   usecase UC_TOURNOI_UPDATE

}
package Match{
 usecase UC_MATCH_ADD
 usecase UC_MATCH_DELETE
 usecase UC_MATCH_UPDATE
 


}
M- ->UC_ADD_TOURNOI
UC_ADD_TOURNOI- ->UC_TOURNOI_LIST:<<include>>
M- ->UC_TOURNOI_DELETE
UC_TOURNOI_DELETE- ->UC_TOURNOI_LIST:<<include>>
M- ->UC_TOURNOI_UPDATE
UC_TOURNOI_UPDATE- ->UC_TOURNOI_LIST:<<include>>
UC_TOURNOI_LIST- -> UC_LIST_JOUEUR


M- ->UC_MATCH_ADD
M- ->UC_MATCH_DELETE
M- ->UC_MATCH_UPDATE






@enduml

PlantUML version 1.2018.12(Sun Oct 21 12:15:15 CEST 2018)
(GPL source distribution)
Java Runtime: Java(TM) SE Runtime Environment
JVM: Java HotSpot(TM) Client VM
Java Version: 1.8.0_171-b11
Operating System: Windows 10
OS Version: 10.0
Default Encoding: Cp1252
Language: fr
Country: BE
--></g></svg>