<?xml version="1.0" encoding="UTF-8" standalone="no"?><svg xmlns="http://www.w3.org/2000/svg" xmlns:xlink="http://www.w3.org/1999/xlink" contentScriptType="application/ecmascript" contentStyleType="text/css" height="774px" preserveAspectRatio="none" style="width:931px;height:774px;" version="1.1" viewBox="0 0 931 774" width="931px" zoomAndPan="magnify"><defs><filter height="300%" id="fn67z67hadxs6" width="300%" x="-1" y="-1"><feGaussianBlur result="blurOut" stdDeviation="2.0"/><feColorMatrix in="blurOut" result="blurOut2" type="matrix" values="0 0 0 0 0 0 0 0 0 0 0 0 0 0 0 0 0 0 .4 0"/><feOffset dx="4.0" dy="4.0" in="blurOut2" result="blurOut3"/><feBlend in="SourceGraphic" in2="blurOut3" mode="normal"/></filter></defs><g><!--cluster Model--><polygon fill="#FFFFFF" filter="url(#fn67z67hadxs6)" points="298.121,467.5,348.121,467.5,355.121,491.1094,909.121,491.1094,909.121,712.5,298.121,712.5,298.121,467.5" style="stroke: #000000; stroke-width: 1.5;"/><line style="stroke: #000000; stroke-width: 1.5;" x1="298.121" x2="355.121" y1="491.1094" y2="491.1094"/><text fill="#000000" font-family="sans-serif" font-size="14" font-weight="bold" lengthAdjust="spacingAndGlyphs" textLength="44" x="302.121" y="484.0332">Model</text><!--class Player--><rect fill="#FEFECE" filter="url(#fn67z67hadxs6)" height="103.3438" id="Player" style="stroke: #A80036; stroke-width: 1.5;" width="105" x="322.121" y="538"/><ellipse cx="354.671" cy="554" fill="#ADD1B2" rx="11" ry="11" style="stroke: #A80036; stroke-width: 1.0;"/><path d="M357.4366,549.875 Q357.5929,549.6563 357.7804,549.5469 Q357.9679,549.4375 358.1866,549.4375 Q358.5616,549.4375 358.796,549.6953 Q359.0304,549.9531 359.0304,550.5625 L359.0304,552.0156 Q359.0304,552.625 358.796,552.8906 Q358.5616,553.1563 358.1866,553.1563 Q357.8429,553.1563 357.6398,552.9531 Q357.4366,552.7656 357.3273,552.25 Q357.2804,551.8906 357.0929,551.7031 Q356.7648,551.3281 356.1554,551.1094 Q355.546,550.8906 354.921,550.8906 Q354.1554,550.8906 353.5226,551.2188 Q352.8898,551.5469 352.3976,552.2969 Q351.9054,553.0469 351.9054,554.0781 L351.9054,555.1719 Q351.9054,556.4063 352.796,557.2266 Q353.6866,558.0469 355.2804,558.0469 Q356.2179,558.0469 356.8741,557.7969 Q357.2648,557.6406 357.6866,557.2031 Q357.9523,556.9375 358.1007,556.8594 Q358.2491,556.7813 358.4523,556.7813 Q358.7804,556.7813 359.0382,557.0391 Q359.296,557.2969 359.296,557.6406 Q359.296,557.9844 358.9523,558.3906 Q358.4523,558.9688 357.6554,559.2969 Q356.5773,559.75 355.2804,559.75 Q353.7648,559.75 352.5616,559.125 Q351.5773,558.625 350.8898,557.5547 Q350.2023,556.4844 350.2023,555.2031 L350.2023,554.0469 Q350.2023,552.7188 350.8194,551.5703 Q351.4366,550.4219 352.5304,549.8047 Q353.6241,549.1875 354.8585,549.1875 Q355.5929,549.1875 356.2413,549.3516 Q356.8898,549.5156 357.4366,549.875 Z "/><text fill="#000000" font-family="sans-serif" font-size="12" lengthAdjust="spacingAndGlyphs" textLength="34" x="372.571" y="558.9102">Player</text><line style="stroke: #A80036; stroke-width: 1.5;" x1="323.121" x2="426.121" y1="570" y2="570"/><line style="stroke: #A80036; stroke-width: 1.5;" x1="323.121" x2="426.121" y1="578" y2="578"/><rect fill="#F24D5C" height="6" style="stroke: #C82930; stroke-width: 1.0;" width="6" x="330.121" y="587.418"/><text fill="#000000" font-family="sans-serif" font-size="11" lengthAdjust="spacingAndGlyphs" textLength="79" x="342.121" y="593.4189">firsName(String)</text><ellipse cx="333.121" cy="604.2539" fill="#84BE84" rx="3" ry="3" style="stroke: #038048; stroke-width: 1.0;"/><text fill="#000000" font-family="sans-serif" font-size="11" lengthAdjust="spacingAndGlyphs" textLength="71" x="342.121" y="607.2549">getFirstName()</text><ellipse cx="333.121" cy="618.0898" fill="#84BE84" rx="3" ry="3" style="stroke: #038048; stroke-width: 1.0;"/><text fill="#000000" font-family="sans-serif" font-size="11" lengthAdjust="spacingAndGlyphs" textLength="45" x="342.121" y="621.0908">toString()</text><ellipse cx="333.121" cy="631.9258" fill="#84BE84" rx="3" ry="3" style="stroke: #038048; stroke-width: 1.0;"/><text fill="#000000" font-family="sans-serif" font-size="11" lengthAdjust="spacingAndGlyphs" textLength="40" x="342.121" y="634.9268">equals()</text><!--class Match--><rect fill="#FEFECE" filter="url(#fn67z67hadxs6)" height="131.0156" id="Match" style="stroke: #A80036; stroke-width: 1.5;" width="189" x="487.121" y="549"/><ellipse cx="561.371" cy="565" fill="#ADD1B2" rx="11" ry="11" style="stroke: #A80036; stroke-width: 1.0;"/><path d="M564.1366,560.875 Q564.2929,560.6563 564.4804,560.5469 Q564.6679,560.4375 564.8866,560.4375 Q565.2616,560.4375 565.496,560.6953 Q565.7304,560.9531 565.7304,561.5625 L565.7304,563.0156 Q565.7304,563.625 565.496,563.8906 Q565.2616,564.1563 564.8866,564.1563 Q564.5429,564.1563 564.3398,563.9531 Q564.1366,563.7656 564.0273,563.25 Q563.9804,562.8906 563.7929,562.7031 Q563.4648,562.3281 562.8554,562.1094 Q562.246,561.8906 561.621,561.8906 Q560.8554,561.8906 560.2226,562.2188 Q559.5898,562.5469 559.0976,563.2969 Q558.6054,564.0469 558.6054,565.0781 L558.6054,566.1719 Q558.6054,567.4063 559.496,568.2266 Q560.3866,569.0469 561.9804,569.0469 Q562.9179,569.0469 563.5741,568.7969 Q563.9648,568.6406 564.3866,568.2031 Q564.6523,567.9375 564.8007,567.8594 Q564.9491,567.7813 565.1523,567.7813 Q565.4804,567.7813 565.7382,568.0391 Q565.996,568.2969 565.996,568.6406 Q565.996,568.9844 565.6523,569.3906 Q565.1523,569.9688 564.3554,570.2969 Q563.2773,570.75 561.9804,570.75 Q560.4648,570.75 559.2616,570.125 Q558.2773,569.625 557.5898,568.5547 Q556.9023,567.4844 556.9023,566.2031 L556.9023,565.0469 Q556.9023,563.7188 557.5194,562.5703 Q558.1366,561.4219 559.2304,560.8047 Q560.3241,560.1875 561.5585,560.1875 Q562.2929,560.1875 562.9413,560.3516 Q563.5898,560.5156 564.1366,560.875 Z "/><text fill="#000000" font-family="sans-serif" font-size="12" lengthAdjust="spacingAndGlyphs" textLength="32" x="581.871" y="569.9102">Match</text><line style="stroke: #A80036; stroke-width: 1.5;" x1="488.121" x2="675.121" y1="581" y2="581"/><line style="stroke: #A80036; stroke-width: 1.5;" x1="488.121" x2="675.121" y1="589" y2="589"/><ellipse cx="498.121" cy="601.418" fill="#84BE84" rx="3" ry="3" style="stroke: #038048; stroke-width: 1.0;"/><text fill="#000000" font-family="sans-serif" font-size="11" lengthAdjust="spacingAndGlyphs" textLength="74" x="507.121" y="604.4189">joueur1(player)</text><ellipse cx="498.121" cy="615.2539" fill="#84BE84" rx="3" ry="3" style="stroke: #038048; stroke-width: 1.0;"/><text fill="#000000" font-family="sans-serif" font-size="11" lengthAdjust="spacingAndGlyphs" textLength="74" x="507.121" y="618.2549">joueur2(player)</text><rect fill="#F24D5C" height="6" style="stroke: #C82930; stroke-width: 1.0;" width="6" x="495.121" y="626.0898"/><text fill="#000000" font-family="sans-serif" font-size="11" lengthAdjust="spacingAndGlyphs" textLength="65" x="507.121" y="632.0908">Score(String)</text><ellipse cx="498.121" cy="642.9258" fill="#84BE84" rx="3" ry="3" style="stroke: #038048; stroke-width: 1.0;"/><text fill="#000000" font-family="sans-serif" font-size="11" lengthAdjust="spacingAndGlyphs" textLength="124" x="507.121" y="645.9268">public Match(constructor)</text><ellipse cx="498.121" cy="656.7617" fill="#84BE84" rx="3" ry="3" style="stroke: #038048; stroke-width: 1.0;"/><text fill="#000000" font-family="sans-serif" font-size="11" lengthAdjust="spacingAndGlyphs" textLength="56" x="507.121" y="659.7627">getJoueur()</text><ellipse cx="498.121" cy="670.5977" fill="#84BE84" rx="3" ry="3" style="stroke: #038048; stroke-width: 1.0;"/><text fill="#000000" font-family="sans-serif" font-size="11" lengthAdjust="spacingAndGlyphs" textLength="163" x="507.121" y="673.5986">Boolean matchexist(Match match)</text><!--class Tournoi--><rect fill="#FEFECE" filter="url(#fn67z67hadxs6)" height="131.0156" id="Tournoi" style="stroke: #A80036; stroke-width: 1.5;" width="149" x="736.121" y="531"/><ellipse cx="785.371" cy="547" fill="#ADD1B2" rx="11" ry="11" style="stroke: #A80036; stroke-width: 1.0;"/><path d="M788.1366,542.875 Q788.2929,542.6563 788.4804,542.5469 Q788.6679,542.4375 788.8866,542.4375 Q789.2616,542.4375 789.496,542.6953 Q789.7304,542.9531 789.7304,543.5625 L789.7304,545.0156 Q789.7304,545.625 789.496,545.8906 Q789.2616,546.1563 788.8866,546.1563 Q788.5429,546.1563 788.3398,545.9531 Q788.1366,545.7656 788.0273,545.25 Q787.9804,544.8906 787.7929,544.7031 Q787.4648,544.3281 786.8554,544.1094 Q786.246,543.8906 785.621,543.8906 Q784.8554,543.8906 784.2226,544.2188 Q783.5898,544.5469 783.0976,545.2969 Q782.6054,546.0469 782.6054,547.0781 L782.6054,548.1719 Q782.6054,549.4063 783.496,550.2266 Q784.3866,551.0469 785.9804,551.0469 Q786.9179,551.0469 787.5741,550.7969 Q787.9648,550.6406 788.3866,550.2031 Q788.6523,549.9375 788.8007,549.8594 Q788.9491,549.7813 789.1523,549.7813 Q789.4804,549.7813 789.7382,550.0391 Q789.996,550.2969 789.996,550.6406 Q789.996,550.9844 789.6523,551.3906 Q789.1523,551.9688 788.3554,552.2969 Q787.2773,552.75 785.9804,552.75 Q784.4648,552.75 783.2616,552.125 Q782.2773,551.625 781.5898,550.5547 Q780.9023,549.4844 780.9023,548.2031 L780.9023,547.0469 Q780.9023,545.7188 781.5194,544.5703 Q782.1366,543.4219 783.2304,542.8047 Q784.3241,542.1875 785.5585,542.1875 Q786.2929,542.1875 786.9413,542.3516 Q787.5898,542.5156 788.1366,542.875 Z "/><text fill="#000000" font-family="sans-serif" font-size="12" lengthAdjust="spacingAndGlyphs" textLength="42" x="805.871" y="551.9102">Tournoi</text><line style="stroke: #A80036; stroke-width: 1.5;" x1="737.121" x2="884.121" y1="563" y2="563"/><rect fill="none" height="6" style="stroke: #C82930; stroke-width: 1.0;" width="6" x="744.121" y="572.418"/><text fill="#000000" font-family="sans-serif" font-size="11" lengthAdjust="spacingAndGlyphs" textLength="97" x="756.121" y="578.4189">List&lt;Joueur&gt;inscrits</text><rect fill="none" height="6" style="stroke: #C82930; stroke-width: 1.0;" width="6" x="744.121" y="586.2539"/><text fill="#000000" font-family="sans-serif" font-size="11" lengthAdjust="spacingAndGlyphs" textLength="87" x="756.121" y="592.2549">List&lt;Match&gt;match</text><ellipse cx="747.121" cy="603.0898" fill="none" rx="3" ry="3" style="stroke: #038048; stroke-width: 1.0;"/><text fill="#000000" font-family="sans-serif" font-size="11" lengthAdjust="spacingAndGlyphs" textLength="44" x="756.121" y="606.0908">getMatch</text><line style="stroke: #A80036; stroke-width: 1.5;" x1="737.121" x2="884.121" y1="612.5078" y2="612.5078"/><rect fill="#F24D5C" height="6" style="stroke: #C82930; stroke-width: 1.0;" width="6" x="744.121" y="621.9258"/><text fill="#000000" font-family="sans-serif" font-size="11" lengthAdjust="spacingAndGlyphs" textLength="81" x="756.121" y="627.9268">tourname(String)</text><ellipse cx="747.121" cy="638.7617" fill="#84BE84" rx="3" ry="3" style="stroke: #038048; stroke-width: 1.0;"/><text fill="#000000" font-family="sans-serif" font-size="11" lengthAdjust="spacingAndGlyphs" textLength="92" x="756.121" y="641.7627">addplayer(Tournoi)</text><ellipse cx="747.121" cy="652.5977" fill="#84BE84" rx="3" ry="3" style="stroke: #038048; stroke-width: 1.0;"/><text fill="#000000" font-family="sans-serif" font-size="11" lengthAdjust="spacingAndGlyphs" textLength="123" x="756.121" y="655.5986">addmatch(players,Score)</text><!--class ViewAdd--><rect fill="#FEFECE" filter="url(#fn67z67hadxs6)" height="131.0156" id="ViewAdd" style="stroke: #A80036; stroke-width: 1.5;" width="208" x="54.1212" y="8"/><ellipse cx="130.3712" cy="24" fill="#ADD1B2" rx="11" ry="11" style="stroke: #A80036; stroke-width: 1.0;"/><path d="M133.1368,19.875 Q133.2931,19.6563 133.4806,19.5469 Q133.6681,19.4375 133.8868,19.4375 Q134.2618,19.4375 134.4962,19.6953 Q134.7306,19.9531 134.7306,20.5625 L134.7306,22.0156 Q134.7306,22.625 134.4962,22.8906 Q134.2618,23.1563 133.8868,23.1563 Q133.5431,23.1563 133.34,22.9531 Q133.1368,22.7656 133.0275,22.25 Q132.9806,21.8906 132.7931,21.7031 Q132.465,21.3281 131.8556,21.1094 Q131.2462,20.8906 130.6212,20.8906 Q129.8556,20.8906 129.2228,21.2188 Q128.59,21.5469 128.0978,22.2969 Q127.6056,23.0469 127.6056,24.0781 L127.6056,25.1719 Q127.6056,26.4063 128.4962,27.2266 Q129.3868,28.0469 130.9806,28.0469 Q131.9181,28.0469 132.5743,27.7969 Q132.965,27.6406 133.3868,27.2031 Q133.6525,26.9375 133.8009,26.8594 Q133.9493,26.7813 134.1525,26.7813 Q134.4806,26.7813 134.7384,27.0391 Q134.9962,27.2969 134.9962,27.6406 Q134.9962,27.9844 134.6525,28.3906 Q134.1525,28.9688 133.3556,29.2969 Q132.2775,29.75 130.9806,29.75 Q129.465,29.75 128.2618,29.125 Q127.2774,28.625 126.5899,27.5547 Q125.9024,26.4844 125.9024,25.2031 L125.9024,24.0469 Q125.9024,22.7188 126.5196,21.5703 Q127.1368,20.4219 128.2306,19.8047 Q129.3243,19.1875 130.5587,19.1875 Q131.2931,19.1875 131.9415,19.3516 Q132.59,19.5156 133.1368,19.875 Z "/><text fill="#000000" font-family="sans-serif" font-size="12" lengthAdjust="spacingAndGlyphs" textLength="47" x="150.8712" y="28.9102">ViewAdd</text><line style="stroke: #A80036; stroke-width: 1.5;" x1="55.1212" x2="261.1212" y1="40" y2="40"/><line style="stroke: #A80036; stroke-width: 1.5;" x1="55.1212" x2="261.1212" y1="48" y2="48"/><ellipse cx="65.1212" cy="60.418" fill="#84BE84" rx="3" ry="3" style="stroke: #038048; stroke-width: 1.0;"/><text fill="#000000" font-family="sans-serif" font-size="11" lengthAdjust="spacingAndGlyphs" textLength="67" x="74.1212" y="63.4189">selectPlayer()</text><ellipse cx="65.1212" cy="74.2539" fill="#84BE84" rx="3" ry="3" style="stroke: #038048; stroke-width: 1.0;"/><text fill="#000000" font-family="sans-serif" font-size="11" lengthAdjust="spacingAndGlyphs" textLength="182" x="74.1212" y="77.2549">selectPlayerFirstName(player1):String</text><ellipse cx="65.1212" cy="88.0898" fill="#84BE84" rx="3" ry="3" style="stroke: #038048; stroke-width: 1.0;"/><text fill="#000000" font-family="sans-serif" font-size="11" lengthAdjust="spacingAndGlyphs" textLength="179" x="74.1212" y="91.0908">selectPkayerFirstName(player):String</text><ellipse cx="65.1212" cy="101.9258" fill="#84BE84" rx="3" ry="3" style="stroke: #038048; stroke-width: 1.0;"/><text fill="#000000" font-family="sans-serif" font-size="11" lengthAdjust="spacingAndGlyphs" textLength="96" x="74.1212" y="104.9268">selectScore():string</text><ellipse cx="65.1212" cy="115.7617" fill="#84BE84" rx="3" ry="3" style="stroke: #038048; stroke-width: 1.0;"/><text fill="#000000" font-family="sans-serif" font-size="11" lengthAdjust="spacingAndGlyphs" textLength="99" x="74.1212" y="118.7627">validate():ButtonAdd</text><ellipse cx="65.1212" cy="129.5977" fill="#84BE84" rx="3" ry="3" style="stroke: #038048; stroke-width: 1.0;"/><text fill="#000000" font-family="sans-serif" font-size="11" lengthAdjust="spacingAndGlyphs" textLength="97" x="74.1212" y="132.5986">createMatch(Match)</text><!--class ViewDelete--><rect fill="#FEFECE" filter="url(#fn67z67hadxs6)" height="89.5078" id="ViewDelete" style="stroke: #A80036; stroke-width: 1.5;" width="127" x="94.6212" y="312.5"/><ellipse cx="124.4712" cy="328.5" fill="#ADD1B2" rx="11" ry="11" style="stroke: #A80036; stroke-width: 1.0;"/><path d="M127.2368,324.375 Q127.3931,324.1563 127.5806,324.0469 Q127.7681,323.9375 127.9868,323.9375 Q128.3618,323.9375 128.5962,324.1953 Q128.8306,324.4531 128.8306,325.0625 L128.8306,326.5156 Q128.8306,327.125 128.5962,327.3906 Q128.3618,327.6563 127.9868,327.6563 Q127.6431,327.6563 127.44,327.4531 Q127.2368,327.2656 127.1275,326.75 Q127.0806,326.3906 126.8931,326.2031 Q126.565,325.8281 125.9556,325.6094 Q125.3462,325.3906 124.7212,325.3906 Q123.9556,325.3906 123.3228,325.7188 Q122.69,326.0469 122.1978,326.7969 Q121.7056,327.5469 121.7056,328.5781 L121.7056,329.6719 Q121.7056,330.9063 122.5962,331.7266 Q123.4868,332.5469 125.0806,332.5469 Q126.0181,332.5469 126.6743,332.2969 Q127.065,332.1406 127.4868,331.7031 Q127.7525,331.4375 127.9009,331.3594 Q128.0493,331.2813 128.2525,331.2813 Q128.5806,331.2813 128.8384,331.5391 Q129.0962,331.7969 129.0962,332.1406 Q129.0962,332.4844 128.7525,332.8906 Q128.2525,333.4688 127.4556,333.7969 Q126.3775,334.25 125.0806,334.25 Q123.565,334.25 122.3618,333.625 Q121.3775,333.125 120.69,332.0547 Q120.0025,330.9844 120.0025,329.7031 L120.0025,328.5469 Q120.0025,327.2188 120.6196,326.0703 Q121.2368,324.9219 122.3306,324.3047 Q123.4243,323.6875 124.6587,323.6875 Q125.3931,323.6875 126.0415,323.8516 Q126.69,324.0156 127.2368,324.375 Z "/><text fill="#000000" font-family="sans-serif" font-size="12" lengthAdjust="spacingAndGlyphs" textLength="62" x="141.7712" y="333.4102">ViewDelete</text><line style="stroke: #A80036; stroke-width: 1.5;" x1="95.6212" x2="220.6212" y1="344.5" y2="344.5"/><line style="stroke: #A80036; stroke-width: 1.5;" x1="95.6212" x2="220.6212" y1="352.5" y2="352.5"/><ellipse cx="105.6212" cy="364.918" fill="#84BE84" rx="3" ry="3" style="stroke: #038048; stroke-width: 1.0;"/><text fill="#000000" font-family="sans-serif" font-size="11" lengthAdjust="spacingAndGlyphs" textLength="101" x="114.6212" y="367.9189">deleteMatch(Match[])</text><ellipse cx="105.6212" cy="378.7539" fill="#84BE84" rx="3" ry="3" style="stroke: #038048; stroke-width: 1.0;"/><text fill="#000000" font-family="sans-serif" font-size="11" lengthAdjust="spacingAndGlyphs" textLength="73" x="114.6212" y="381.7549">confirmDialog()</text><ellipse cx="105.6212" cy="392.5898" fill="#84BE84" rx="3" ry="3" style="stroke: #038048; stroke-width: 1.0;"/><text fill="#000000" font-family="sans-serif" font-size="11" lengthAdjust="spacingAndGlyphs" textLength="69" x="114.6212" y="395.5908">cancelDialog()</text><!--class ViewUpdate--><rect fill="#FEFECE" filter="url(#fn67z67hadxs6)" height="103.3438" id="ViewUpdate" style="stroke: #A80036; stroke-width: 1.5;" width="115" x="100.6212" y="174"/><ellipse cx="123.2712" cy="190" fill="#ADD1B2" rx="11" ry="11" style="stroke: #A80036; stroke-width: 1.0;"/><path d="M126.0368,185.875 Q126.1931,185.6563 126.3806,185.5469 Q126.5681,185.4375 126.7868,185.4375 Q127.1618,185.4375 127.3962,185.6953 Q127.6306,185.9531 127.6306,186.5625 L127.6306,188.0156 Q127.6306,188.625 127.3962,188.8906 Q127.1618,189.1563 126.7868,189.1563 Q126.4431,189.1563 126.24,188.9531 Q126.0368,188.7656 125.9275,188.25 Q125.8806,187.8906 125.6931,187.7031 Q125.365,187.3281 124.7556,187.1094 Q124.1462,186.8906 123.5212,186.8906 Q122.7556,186.8906 122.1228,187.2188 Q121.49,187.5469 120.9978,188.2969 Q120.5056,189.0469 120.5056,190.0781 L120.5056,191.1719 Q120.5056,192.4063 121.3962,193.2266 Q122.2868,194.0469 123.8806,194.0469 Q124.8181,194.0469 125.4743,193.7969 Q125.865,193.6406 126.2868,193.2031 Q126.5525,192.9375 126.7009,192.8594 Q126.8493,192.7813 127.0525,192.7813 Q127.3806,192.7813 127.6384,193.0391 Q127.8962,193.2969 127.8962,193.6406 Q127.8962,193.9844 127.5525,194.3906 Q127.0525,194.9688 126.2556,195.2969 Q125.1775,195.75 123.8806,195.75 Q122.365,195.75 121.1618,195.125 Q120.1775,194.625 119.49,193.5547 Q118.8025,192.4844 118.8025,191.2031 L118.8025,190.0469 Q118.8025,188.7188 119.4196,187.5703 Q120.0368,186.4219 121.1306,185.8047 Q122.2243,185.1875 123.4587,185.1875 Q124.1931,185.1875 124.8415,185.3516 Q125.49,185.5156 126.0368,185.875 Z "/><text fill="#000000" font-family="sans-serif" font-size="12" lengthAdjust="spacingAndGlyphs" textLength="66" x="138.9712" y="194.9102">ViewUpdate</text><line style="stroke: #A80036; stroke-width: 1.5;" x1="101.6212" x2="214.6212" y1="206" y2="206"/><line style="stroke: #A80036; stroke-width: 1.5;" x1="101.6212" x2="214.6212" y1="214" y2="214"/><text fill="#000000" font-family="sans-serif" font-size="11" lengthAdjust="spacingAndGlyphs" textLength="89" x="120.6212" y="229.4189">setPlayer(player1)</text><ellipse cx="111.6212" cy="240.2539" fill="#84BE84" rx="3" ry="3" style="stroke: #038048; stroke-width: 1.0;"/><text fill="#000000" font-family="sans-serif" font-size="11" lengthAdjust="spacingAndGlyphs" textLength="89" x="120.6212" y="243.2549">setPlayer(Player2)</text><ellipse cx="111.6212" cy="254.0898" fill="#84BE84" rx="3" ry="3" style="stroke: #038048; stroke-width: 1.0;"/><text fill="#000000" font-family="sans-serif" font-size="11" lengthAdjust="spacingAndGlyphs" textLength="81" x="120.6212" y="257.0908">setScore(Score)</text><ellipse cx="111.6212" cy="267.9258" fill="#84BE84" rx="3" ry="3" style="stroke: #038048; stroke-width: 1.0;"/><text fill="#000000" font-family="sans-serif" font-size="11" lengthAdjust="spacingAndGlyphs" textLength="45" x="120.6212" y="270.9268">validate()</text><!--class View--><rect fill="#FEFECE" filter="url(#fn67z67hadxs6)" height="48" id="View" style="stroke: #A80036; stroke-width: 1.5;" width="58" x="129.121" y="437.5"/><ellipse cx="144.121" cy="453.5" fill="#ADD1B2" rx="11" ry="11" style="stroke: #A80036; stroke-width: 1.0;"/><path d="M146.8866,449.375 Q147.0429,449.1563 147.2304,449.0469 Q147.4179,448.9375 147.6366,448.9375 Q148.0116,448.9375 148.246,449.1953 Q148.4804,449.4531 148.4804,450.0625 L148.4804,451.5156 Q148.4804,452.125 148.246,452.3906 Q148.0116,452.6563 147.6366,452.6563 Q147.2929,452.6563 147.0897,452.4531 Q146.8866,452.2656 146.7772,451.75 Q146.7304,451.3906 146.5429,451.2031 Q146.2147,450.8281 145.6054,450.6094 Q144.996,450.3906 144.371,450.3906 Q143.6054,450.3906 142.9726,450.7188 Q142.3397,451.0469 141.8476,451.7969 Q141.3554,452.5469 141.3554,453.5781 L141.3554,454.6719 Q141.3554,455.9063 142.246,456.7266 Q143.1366,457.5469 144.7304,457.5469 Q145.6679,457.5469 146.3241,457.2969 Q146.7147,457.1406 147.1366,456.7031 Q147.4022,456.4375 147.5507,456.3594 Q147.6991,456.2813 147.9022,456.2813 Q148.2304,456.2813 148.4882,456.5391 Q148.746,456.7969 148.746,457.1406 Q148.746,457.4844 148.4022,457.8906 Q147.9022,458.4688 147.1054,458.7969 Q146.0272,459.25 144.7304,459.25 Q143.2147,459.25 142.0116,458.625 Q141.0272,458.125 140.3397,457.0547 Q139.6522,455.9844 139.6522,454.7031 L139.6522,453.5469 Q139.6522,452.2188 140.2694,451.0703 Q140.8866,449.9219 141.9804,449.3047 Q143.0741,448.6875 144.3085,448.6875 Q145.0429,448.6875 145.6913,448.8516 Q146.3397,449.0156 146.8866,449.375 Z "/><text fill="#000000" font-family="sans-serif" font-size="12" lengthAdjust="spacingAndGlyphs" textLength="26" x="158.121" y="458.4102">View</text><line style="stroke: #A80036; stroke-width: 1.5;" x1="130.121" x2="186.121" y1="469.5" y2="469.5"/><line style="stroke: #A80036; stroke-width: 1.5;" x1="130.121" x2="186.121" y1="477.5" y2="477.5"/><!--class Controller--><rect fill="#FEFECE" filter="url(#fn67z67hadxs6)" height="89.5078" id="Controller" style="stroke: #A80036; stroke-width: 1.5;" width="127" x="94.6212" y="520.5"/><ellipse cx="128.0712" cy="536.5" fill="#ADD1B2" rx="11" ry="11" style="stroke: #A80036; stroke-width: 1.0;"/><path d="M130.8368,532.375 Q130.9931,532.1563 131.1806,532.0469 Q131.3681,531.9375 131.5868,531.9375 Q131.9618,531.9375 132.1962,532.1953 Q132.4306,532.4531 132.4306,533.0625 L132.4306,534.5156 Q132.4306,535.125 132.1962,535.3906 Q131.9618,535.6563 131.5868,535.6563 Q131.2431,535.6563 131.04,535.4531 Q130.8368,535.2656 130.7275,534.75 Q130.6806,534.3906 130.4931,534.2031 Q130.165,533.8281 129.5556,533.6094 Q128.9462,533.3906 128.3212,533.3906 Q127.5556,533.3906 126.9228,533.7188 Q126.29,534.0469 125.7978,534.7969 Q125.3056,535.5469 125.3056,536.5781 L125.3056,537.6719 Q125.3056,538.9063 126.1962,539.7266 Q127.0868,540.5469 128.6806,540.5469 Q129.6181,540.5469 130.2743,540.2969 Q130.665,540.1406 131.0868,539.7031 Q131.3525,539.4375 131.5009,539.3594 Q131.6493,539.2813 131.8525,539.2813 Q132.1806,539.2813 132.4384,539.5391 Q132.6962,539.7969 132.6962,540.1406 Q132.6962,540.4844 132.3525,540.8906 Q131.8525,541.4688 131.0556,541.7969 Q129.9775,542.25 128.6806,542.25 Q127.165,542.25 125.9618,541.625 Q124.9775,541.125 124.29,540.0547 Q123.6025,538.9844 123.6025,537.7031 L123.6025,536.5469 Q123.6025,535.2188 124.2196,534.0703 Q124.8368,532.9219 125.9306,532.3047 Q127.0243,531.6875 128.2587,531.6875 Q128.9931,531.6875 129.6415,531.8516 Q130.29,532.0156 130.8368,532.375 Z "/><text fill="#000000" font-family="sans-serif" font-size="12" lengthAdjust="spacingAndGlyphs" textLength="54" x="146.1712" y="541.4102">Controller</text><line style="stroke: #A80036; stroke-width: 1.5;" x1="95.6212" x2="220.6212" y1="552.5" y2="552.5"/><rect fill="none" height="6" style="stroke: #C82930; stroke-width: 1.0;" width="6" x="102.6212" y="561.918"/><text fill="#000000" font-family="sans-serif" font-size="11" lengthAdjust="spacingAndGlyphs" textLength="36" x="114.6212" y="567.9189">Tournoi</text><line style="stroke: #A80036; stroke-width: 1.5;" x1="95.6212" x2="220.6212" y1="574.3359" y2="574.3359"/><ellipse cx="105.6212" cy="586.7539" fill="#84BE84" rx="3" ry="3" style="stroke: #038048; stroke-width: 1.0;"/><text fill="#000000" font-family="sans-serif" font-size="11" lengthAdjust="spacingAndGlyphs" textLength="95" x="114.6212" y="589.7549">getPlayers(Tournoi)</text><ellipse cx="105.6212" cy="600.5898" fill="#84BE84" rx="3" ry="3" style="stroke: #038048; stroke-width: 1.0;"/><text fill="#000000" font-family="sans-serif" font-size="11" lengthAdjust="spacingAndGlyphs" textLength="101" x="114.6212" y="603.5908">deleteMatch(Match[])</text><!--class Repository--><rect fill="#FEFECE" filter="url(#fn67z67hadxs6)" height="117.1797" id="Repository" style="stroke: #A80036; stroke-width: 1.5;" width="121" x="97.6212" y="646"/><ellipse cx="126.1212" cy="662" fill="#ADD1B2" rx="11" ry="11" style="stroke: #A80036; stroke-width: 1.0;"/><path d="M128.8868,657.875 Q129.0431,657.6563 129.2306,657.5469 Q129.4181,657.4375 129.6368,657.4375 Q130.0118,657.4375 130.2462,657.6953 Q130.4806,657.9531 130.4806,658.5625 L130.4806,660.0156 Q130.4806,660.625 130.2462,660.8906 Q130.0118,661.1563 129.6368,661.1563 Q129.2931,661.1563 129.09,660.9531 Q128.8868,660.7656 128.7775,660.25 Q128.7306,659.8906 128.5431,659.7031 Q128.215,659.3281 127.6056,659.1094 Q126.9962,658.8906 126.3712,658.8906 Q125.6056,658.8906 124.9728,659.2188 Q124.34,659.5469 123.8478,660.2969 Q123.3556,661.0469 123.3556,662.0781 L123.3556,663.1719 Q123.3556,664.4063 124.2462,665.2266 Q125.1368,666.0469 126.7306,666.0469 Q127.6681,666.0469 128.3243,665.7969 Q128.715,665.6406 129.1368,665.2031 Q129.4025,664.9375 129.5509,664.8594 Q129.6993,664.7813 129.9025,664.7813 Q130.2306,664.7813 130.4884,665.0391 Q130.7462,665.2969 130.7462,665.6406 Q130.7462,665.9844 130.4025,666.3906 Q129.9025,666.9688 129.1056,667.2969 Q128.0275,667.75 126.7306,667.75 Q125.215,667.75 124.0118,667.125 Q123.0275,666.625 122.34,665.5547 Q121.6525,664.4844 121.6525,663.2031 L121.6525,662.0469 Q121.6525,660.7188 122.2696,659.5703 Q122.8868,658.4219 123.9806,657.8047 Q125.0743,657.1875 126.3087,657.1875 Q127.0431,657.1875 127.6915,657.3516 Q128.34,657.5156 128.8868,657.875 Z "/><text fill="#000000" font-family="sans-serif" font-size="12" lengthAdjust="spacingAndGlyphs" textLength="59" x="143.1212" y="666.9102">Repository</text><line style="stroke: #A80036; stroke-width: 1.5;" x1="98.6212" x2="217.6212" y1="678" y2="678"/><ellipse cx="108.6212" cy="690.418" fill="none" rx="3" ry="3" style="stroke: #038048; stroke-width: 1.0;"/><text fill="#000000" font-family="sans-serif" font-size="11" lengthAdjust="spacingAndGlyphs" textLength="62" x="117.6212" y="693.4189">updateMatch</text><line style="stroke: #A80036; stroke-width: 1.5;" x1="98.6212" x2="217.6212" y1="699.8359" y2="699.8359"/><ellipse cx="108.6212" cy="712.2539" fill="#84BE84" rx="3" ry="3" style="stroke: #038048; stroke-width: 1.0;"/><text fill="#000000" font-family="sans-serif" font-size="11" lengthAdjust="spacingAndGlyphs" textLength="95" x="117.6212" y="715.2549">savePlayer(Joueur)</text><ellipse cx="108.6212" cy="726.0898" fill="#84BE84" rx="3" ry="3" style="stroke: #038048; stroke-width: 1.0;"/><text fill="#000000" font-family="sans-serif" font-size="11" lengthAdjust="spacingAndGlyphs" textLength="90" x="117.6212" y="729.0908">saveMatch(Match)</text><ellipse cx="108.6212" cy="739.9258" fill="#84BE84" rx="3" ry="3" style="stroke: #038048; stroke-width: 1.0;"/><text fill="#000000" font-family="sans-serif" font-size="11" lengthAdjust="spacingAndGlyphs" textLength="68" x="117.6212" y="742.9268">saveTournoi()</text><ellipse cx="108.6212" cy="753.7617" fill="#84BE84" rx="3" ry="3" style="stroke: #038048; stroke-width: 1.0;"/><text fill="#000000" font-family="sans-serif" font-size="11" lengthAdjust="spacingAndGlyphs" textLength="80" x="117.6212" y="756.7627">update Tournoi()</text><!--link ViewAdd to View--><path d="M53.8874,135.007 C41.9126,146.432 31.404,159.435 24.1212,174 C1.4624,219.318 -1.1139,358.065 24.1212,402 C42.7575,434.446 84.1746,449.249 116.065,455.972 " fill="none" id="ViewAdd-View" style="stroke: #A80036; stroke-width: 1.0;"/><polygon fill="#FFFFFF" points="129.055,458.387,123.887,453.3579,117.2571,456.1941,122.4251,461.2232,129.055,458.387" style="stroke: #A80036; stroke-width: 1.0;"/><!--link ViewUpdate to View--><path d="M100.3899,247.064 C71.9839,260.954 40.4135,282.091 24.1212,312 C4.9868,347.127 4.1988,367.314 24.1212,402 C42.7575,434.446 84.1746,449.249 116.065,455.972 " fill="none" id="ViewUpdate-View" style="stroke: #A80036; stroke-width: 1.0;"/><polygon fill="#FFFFFF" points="129.055,458.387,123.887,453.3579,117.2571,456.1941,122.4251,461.2232,129.055,458.387" style="stroke: #A80036; stroke-width: 1.0;"/><!--link ViewDelete to View--><path d="M158.121,402.6 C158.121,409.703 158.121,416.806 158.121,423.908 " fill="none" id="ViewDelete-View" style="stroke: #A80036; stroke-width: 1.0;"/><polygon fill="#FFFFFF" points="158.121,437.125,162.121,431.125,158.121,425.125,154.121,431.125,158.121,437.125" style="stroke: #A80036; stroke-width: 1.0;"/><!--link View to Controller--><path d="M158.121,485.891 C158.121,497.396 158.121,508.901 158.121,520.406 " fill="none" id="View-Controller" style="stroke: #A80036; stroke-width: 1.0;"/><!--link Controller to Repository--><path d="M158.121,610.702 C158.121,622.421 158.121,634.14 158.121,645.859 " fill="none" id="Controller-Repository" style="stroke: #A80036; stroke-width: 1.0;"/><!--link Repository to Model--><path d="M218.871,704.5 C234.4905,704.5 251.7943,704.5 269.0073,704.5 C277.6139,704.5 286.1978,704.5 294.5371,704.5 C295.5795,704.5 296.6181,704.5 297.6525,704.5 " fill="none" id="Repository-Model" style="stroke: #A80036; stroke-width: 1.0;"/><!--link Player to Tournoi--><path d="M427.155,556.142 C445.358,546.171 466.456,536.553 487.121,531.5 C568.717,511.547 594.268,512.632 676.121,531.5 C692.077,535.178 708.334,541.033 723.76,547.757 " fill="none" id="Player-Tournoi" style="stroke: #A80036; stroke-width: 1.0;"/><polygon fill="#FFFFFF" points="735.932,553.312,732.1341,547.1821,725.015,548.3302,728.8129,554.4601,735.932,553.312" style="stroke: #A80036; stroke-width: 1.0;"/><!--link Player to Match--><path d="M427.351,595.809 C443.94,597.831 462.901,600.144 481.702,602.437 " fill="none" id="Player-Match" style="stroke: #A80036; stroke-width: 1.0;"/><polygon fill="#A80036" points="486.998,603.083,478.5489,598.0221,482.0348,602.4772,477.5797,605.9632,486.998,603.083" style="stroke: #A80036; stroke-width: 1.0;"/><!--link Match to Tournoi--><path d="M676.261,607.075 C691.658,605.854 707.558,604.593 722.78,603.386 " fill="none" id="Match-Tournoi" style="stroke: #A80036; stroke-width: 1.0;"/><polygon fill="#A80036" points="735.953,602.342,729.6557,598.8285,723.9905,603.2901,730.2878,606.8035,735.953,602.342" style="stroke: #A80036; stroke-width: 1.0;"/><!--
@startuml 
left to right direction

class ViewAdd{
    +selectPlayer()
     +selectPlayerFirstName(player1):String
     +selectPkayerFirstName(player):String 
     +selectScore():string
     +validate():ButtonAdd
     +createMatch(Match)


}
class ViewDelete{
+deleteMatch(Match[])
+confirmDialog()
+cancelDialog()
}
class ViewUpdate{
setPlayer(player1)
+setPlayer(Player2)
+setScore(Score)
+validate()
}
class View{

}
class Controller{
-Tournoi
+getPlayers(Tournoi)
+deleteMatch(Match[])
}
class Repository{
+savePlayer(Joueur)
+saveMatch(Match)
+saveTournoi()
+update Tournoi()
+updateMatch

}
package Model{


class Player{
-firsName(String)
+getFirstName()
+toString()
+equals()
}
class Match{
    +joueur1(player)
    +joueur2(player)
    -Score(String)
    +public Match(constructor)
    +getJoueur()
    +Boolean matchexist(Match match)
}
class Tournoi{
    -tourname(String)
    -List<Joueur>inscrits
    -List<Match>match
    +addplayer(Tournoi)
    +addmatch(players,Score)
    +getMatch

}
}
ViewAdd -l-o View
ViewUpdate -l-o View
ViewDelete -l-o View
View-r-Controller
Controller -r- Repository
Repository - -Model
Player - -o Tournoi 
Player - -> Match 
Match - -* Tournoi
@enduml

PlantUML version 1.2018.12(Sun Oct 21 12:15:15 CEST 2018)
(GPL source distribution)
Java Runtime: Java(TM) SE Runtime Environment
JVM: Java HotSpot(TM) Client VM
Java Version: 1.8.0_171-b11
Operating System: Windows 10
OS Version: 10.0
Default Encoding: Cp1252
Language: fr
Country: BE
--></g></svg>