<?xml version="1.0" encoding="UTF-8" standalone="no"?><svg xmlns="http://www.w3.org/2000/svg" xmlns:xlink="http://www.w3.org/1999/xlink" contentScriptType="application/ecmascript" contentStyleType="text/css" height="276px" preserveAspectRatio="none" style="width:333px;height:276px;" version="1.1" viewBox="0 0 333 276" width="333px" zoomAndPan="magnify"><defs><filter height="300%" id="fmes2y2kokgig" width="300%" x="-1" y="-1"><feGaussianBlur result="blurOut" stdDeviation="2.0"/><feColorMatrix in="blurOut" result="blurOut2" type="matrix" values="0 0 0 0 0 0 0 0 0 0 0 0 0 0 0 0 0 0 .4 0"/><feOffset dx="4.0" dy="4.0" in="blurOut2" result="blurOut3"/><feBlend in="SourceGraphic" in2="blurOut3" mode="normal"/></filter></defs><g><!--class Joueur--><rect fill="#FEFECE" filter="url(#fmes2y2kokgig)" height="89.5078" id="Joueur" style="stroke: #A80036; stroke-width: 1.5;" width="103" x="219" y="8"/><ellipse cx="248.85" cy="24" fill="#ADD1B2" rx="11" ry="11" style="stroke: #A80036; stroke-width: 1.0;"/><path d="M251.6156,19.875 Q251.7719,19.6563 251.9594,19.5469 Q252.1469,19.4375 252.3656,19.4375 Q252.7406,19.4375 252.975,19.6953 Q253.2094,19.9531 253.2094,20.5625 L253.2094,22.0156 Q253.2094,22.625 252.975,22.8906 Q252.7406,23.1563 252.3656,23.1563 Q252.0219,23.1563 251.8188,22.9531 Q251.6156,22.7656 251.5063,22.25 Q251.4594,21.8906 251.2719,21.7031 Q250.9438,21.3281 250.3344,21.1094 Q249.725,20.8906 249.1,20.8906 Q248.3344,20.8906 247.7016,21.2188 Q247.0688,21.5469 246.5766,22.2969 Q246.0844,23.0469 246.0844,24.0781 L246.0844,25.1719 Q246.0844,26.4063 246.975,27.2266 Q247.8656,28.0469 249.4594,28.0469 Q250.3969,28.0469 251.0531,27.7969 Q251.4438,27.6406 251.8656,27.2031 Q252.1313,26.9375 252.2797,26.8594 Q252.4281,26.7813 252.6313,26.7813 Q252.9594,26.7813 253.2172,27.0391 Q253.475,27.2969 253.475,27.6406 Q253.475,27.9844 253.1313,28.3906 Q252.6313,28.9688 251.8344,29.2969 Q250.7563,29.75 249.4594,29.75 Q247.9438,29.75 246.7406,29.125 Q245.7563,28.625 245.0688,27.5547 Q244.3813,26.4844 244.3813,25.2031 L244.3813,24.0469 Q244.3813,22.7188 244.9984,21.5703 Q245.6156,20.4219 246.7094,19.8047 Q247.8031,19.1875 249.0375,19.1875 Q249.7719,19.1875 250.4203,19.3516 Q251.0688,19.5156 251.6156,19.875 Z "/><text fill="#000000" font-family="sans-serif" font-size="12" lengthAdjust="spacingAndGlyphs" textLength="38" x="266.15" y="28.9102">Joueur</text><line style="stroke: #A80036; stroke-width: 1.5;" x1="220" x2="321" y1="40" y2="40"/><rect fill="none" height="6" style="stroke: #C82930; stroke-width: 1.0;" width="6" x="227" y="49.418"/><text fill="#000000" font-family="sans-serif" font-size="11" lengthAdjust="spacingAndGlyphs" textLength="77" x="239" y="55.4189">firstName:String</text><ellipse cx="230" cy="66.2539" fill="none" rx="3" ry="3" style="stroke: #038048; stroke-width: 1.0;"/><text fill="#000000" font-family="sans-serif" font-size="11" lengthAdjust="spacingAndGlyphs" textLength="58" x="239" y="69.2549">getInsription</text><ellipse cx="230" cy="80.0898" fill="none" rx="3" ry="3" style="stroke: #038048; stroke-width: 1.0;"/><text fill="#000000" font-family="sans-serif" font-size="11" lengthAdjust="spacingAndGlyphs" textLength="49" x="239" y="83.0908">playMatch</text><line style="stroke: #A80036; stroke-width: 1.5;" x1="220" x2="321" y1="89.5078" y2="89.5078"/><!--class Tournoi--><rect fill="#FEFECE" filter="url(#fmes2y2kokgig)" height="89.5078" id="Tournoi" style="stroke: #A80036; stroke-width: 1.5;" width="133" x="6" y="8"/><ellipse cx="47.55" cy="24" fill="#ADD1B2" rx="11" ry="11" style="stroke: #A80036; stroke-width: 1.0;"/><path d="M50.3156,19.875 Q50.4719,19.6563 50.6594,19.5469 Q50.8469,19.4375 51.0656,19.4375 Q51.4406,19.4375 51.675,19.6953 Q51.9094,19.9531 51.9094,20.5625 L51.9094,22.0156 Q51.9094,22.625 51.675,22.8906 Q51.4406,23.1563 51.0656,23.1563 Q50.7219,23.1563 50.5188,22.9531 Q50.3156,22.7656 50.2063,22.25 Q50.1594,21.8906 49.9719,21.7031 Q49.6438,21.3281 49.0344,21.1094 Q48.425,20.8906 47.8,20.8906 Q47.0344,20.8906 46.4016,21.2188 Q45.7688,21.5469 45.2766,22.2969 Q44.7844,23.0469 44.7844,24.0781 L44.7844,25.1719 Q44.7844,26.4063 45.675,27.2266 Q46.5656,28.0469 48.1594,28.0469 Q49.0969,28.0469 49.7531,27.7969 Q50.1438,27.6406 50.5656,27.2031 Q50.8313,26.9375 50.9797,26.8594 Q51.1281,26.7813 51.3313,26.7813 Q51.6594,26.7813 51.9172,27.0391 Q52.175,27.2969 52.175,27.6406 Q52.175,27.9844 51.8313,28.3906 Q51.3313,28.9688 50.5344,29.2969 Q49.4563,29.75 48.1594,29.75 Q46.6438,29.75 45.4406,29.125 Q44.4563,28.625 43.7688,27.5547 Q43.0813,26.4844 43.0813,25.2031 L43.0813,24.0469 Q43.0813,22.7188 43.6984,21.5703 Q44.3156,20.4219 45.4094,19.8047 Q46.5031,19.1875 47.7375,19.1875 Q48.4719,19.1875 49.1203,19.3516 Q49.7688,19.5156 50.3156,19.875 Z "/><text fill="#000000" font-family="sans-serif" font-size="12" lengthAdjust="spacingAndGlyphs" textLength="42" x="67.45" y="28.9102">Tournoi</text><line style="stroke: #A80036; stroke-width: 1.5;" x1="7" x2="138" y1="40" y2="40"/><rect fill="none" height="6" style="stroke: #C82930; stroke-width: 1.0;" width="6" x="14" y="49.418"/><text fill="#000000" font-family="sans-serif" font-size="11" lengthAdjust="spacingAndGlyphs" textLength="60" x="26" y="55.4189">tournoiName</text><rect fill="none" height="6" style="stroke: #C82930; stroke-width: 1.0;" width="6" x="14" y="63.2539"/><text fill="#000000" font-family="sans-serif" font-size="11" lengthAdjust="spacingAndGlyphs" textLength="56" x="26" y="69.2549">ListJoueurs</text><rect fill="none" height="6" style="stroke: #C82930; stroke-width: 1.0;" width="6" x="14" y="77.0898"/><text fill="#000000" font-family="sans-serif" font-size="11" lengthAdjust="spacingAndGlyphs" textLength="107" x="26" y="83.0908">MatchList:List&lt;Match&gt;</text><line style="stroke: #A80036; stroke-width: 1.5;" x1="7" x2="138" y1="89.5078" y2="89.5078"/><!--class Match--><rect fill="#FEFECE" filter="url(#fmes2y2kokgig)" height="89.5078" id="Match" style="stroke: #A80036; stroke-width: 1.5;" width="98" x="122.5" y="176"/><ellipse cx="152.8" cy="192" fill="#ADD1B2" rx="11" ry="11" style="stroke: #A80036; stroke-width: 1.0;"/><path d="M155.5656,187.875 Q155.7219,187.6563 155.9094,187.5469 Q156.0969,187.4375 156.3156,187.4375 Q156.6906,187.4375 156.925,187.6953 Q157.1594,187.9531 157.1594,188.5625 L157.1594,190.0156 Q157.1594,190.625 156.925,190.8906 Q156.6906,191.1563 156.3156,191.1563 Q155.9719,191.1563 155.7688,190.9531 Q155.5656,190.7656 155.4563,190.25 Q155.4094,189.8906 155.2219,189.7031 Q154.8938,189.3281 154.2844,189.1094 Q153.675,188.8906 153.05,188.8906 Q152.2844,188.8906 151.6516,189.2188 Q151.0188,189.5469 150.5266,190.2969 Q150.0344,191.0469 150.0344,192.0781 L150.0344,193.1719 Q150.0344,194.4063 150.925,195.2266 Q151.8156,196.0469 153.4094,196.0469 Q154.3469,196.0469 155.0031,195.7969 Q155.3938,195.6406 155.8156,195.2031 Q156.0813,194.9375 156.2297,194.8594 Q156.3781,194.7813 156.5813,194.7813 Q156.9094,194.7813 157.1672,195.0391 Q157.425,195.2969 157.425,195.6406 Q157.425,195.9844 157.0813,196.3906 Q156.5813,196.9688 155.7844,197.2969 Q154.7063,197.75 153.4094,197.75 Q151.8938,197.75 150.6906,197.125 Q149.7063,196.625 149.0188,195.5547 Q148.3313,194.4844 148.3313,193.2031 L148.3313,192.0469 Q148.3313,190.7188 148.9484,189.5703 Q149.5656,188.4219 150.6594,187.8047 Q151.7531,187.1875 152.9875,187.1875 Q153.7219,187.1875 154.3703,187.3516 Q155.0188,187.5156 155.5656,187.875 Z "/><text fill="#000000" font-family="sans-serif" font-size="12" lengthAdjust="spacingAndGlyphs" textLength="32" x="170.2" y="196.9102">Match</text><line style="stroke: #A80036; stroke-width: 1.5;" x1="123.5" x2="219.5" y1="208" y2="208"/><rect fill="none" height="6" style="stroke: #C82930; stroke-width: 1.0;" width="6" x="130.5" y="217.418"/><text fill="#000000" font-family="sans-serif" font-size="11" lengthAdjust="spacingAndGlyphs" textLength="72" x="142.5" y="223.4189">joueur 1:joueur</text><rect fill="none" height="6" style="stroke: #C82930; stroke-width: 1.0;" width="6" x="130.5" y="231.2539"/><text fill="#000000" font-family="sans-serif" font-size="11" lengthAdjust="spacingAndGlyphs" textLength="72" x="142.5" y="237.2549">joueur 2:joueur</text><rect fill="none" height="6" style="stroke: #C82930; stroke-width: 1.0;" width="6" x="130.5" y="245.0898"/><text fill="#000000" font-family="sans-serif" font-size="11" lengthAdjust="spacingAndGlyphs" textLength="60" x="142.5" y="251.0908">Score:String</text><line style="stroke: #A80036; stroke-width: 1.5;" x1="123.5" x2="219.5" y1="257.5078" y2="257.5078"/><!--link Tournoi to Joueur--><path d="M152.567,53 C174.877,53 198.52,53 218.732,53 " fill="none" id="Tournoi-Joueur" style="stroke: #A80036; stroke-width: 1.0;"/><polygon fill="#A80036" points="139.258,53,145.258,57,151.258,53,145.258,49,139.258,53" style="stroke: #A80036; stroke-width: 1.0;"/><text fill="#000000" font-family="sans-serif" font-size="13" lengthAdjust="spacingAndGlyphs" textLength="43" x="157.5" y="46.4951">inscrit&gt;</text><text fill="#000000" font-family="sans-serif" font-size="13" lengthAdjust="spacingAndGlyphs" textLength="12" x="147.2159" y="49.6663">1*</text><text fill="#000000" font-family="sans-serif" font-size="13" lengthAdjust="spacingAndGlyphs" textLength="12" x="198.9694" y="49.4768">1*</text><!--link Tournoi to Match--><path d="M105.5253,109.376 C118.399,130.963 132.952,155.363 145.107,175.745 " fill="none" id="Tournoi-Match" style="stroke: #A80036; stroke-width: 1.0;"/><polygon fill="#A80036" points="98.7703,98.049,98.408,105.251,104.9166,108.3554,105.2789,101.1535,98.7703,98.049" style="stroke: #A80036; stroke-width: 1.0;"/><text fill="#000000" font-family="sans-serif" font-size="13" lengthAdjust="spacingAndGlyphs" textLength="49" x="126.5" y="142.4951">organise</text><text fill="#000000" font-family="sans-serif" font-size="13" lengthAdjust="spacingAndGlyphs" textLength="7" x="94.9724" y="119.0635">1</text><text fill="#000000" font-family="sans-serif" font-size="13" lengthAdjust="spacingAndGlyphs" textLength="5" x="135.6828" y="165.15">*</text><!--link Joueur to Match--><path d="M244.23,98.049 C232.091,118.404 217.541,142.8 204.655,164.406 " fill="none" id="Joueur-Match" style="stroke: #A80036; stroke-width: 1.0;"/><polygon fill="#FFFFFF" points="197.893,175.745,204.4017,172.6407,204.0396,165.4387,197.5309,168.543,197.893,175.745" style="stroke: #A80036; stroke-width: 1.0;"/><text fill="#000000" font-family="sans-serif" font-size="13" lengthAdjust="spacingAndGlyphs" textLength="26" x="225.5" y="142.4951">Play</text><text fill="#000000" font-family="sans-serif" font-size="13" lengthAdjust="spacingAndGlyphs" textLength="7" x="233.0436" y="119.0635">2</text><text fill="#000000" font-family="sans-serif" font-size="13" lengthAdjust="spacingAndGlyphs" textLength="12" x="189.0157" y="165.15">0*</text><!--
@startuml
class Joueur{
-firstName:String
+getInsription
+playMatch
}
class Tournoi{
    -tournoiName
    -ListJoueurs
    -MatchList:List<Match>
    
}
class Match{
    -joueur 1:joueur
    -joueur 2:joueur
    -Score:String
}
Tournoi"1*" *- -r- "1*"Joueur:inscrit>
Tournoi "1"*-r-"*"Match:organise
Joueur "2"- -o "0*"Match:Play
@enduml

PlantUML version 1.2018.12(Sun Oct 21 12:15:15 CEST 2018)
(GPL source distribution)
Java Runtime: Java(TM) SE Runtime Environment
JVM: Java HotSpot(TM) Client VM
Java Version: 1.8.0_171-b11
Operating System: Windows 10
OS Version: 10.0
Default Encoding: Cp1252
Language: fr
Country: BE
--></g></svg>